<?xml version="1.0" standalone="no"?>
<!DOCTYPE svg PUBLIC "-//W3C//DTD SVG 1.1//EN" "http://www.w3.org/Graphics/SVG/1.1/DTD/svg11.dtd" >
<svg xmlns="http://www.w3.org/2000/svg">
<metadata>
This is a custom SVG webfont generated by Font Squirrel.
Copyright   : Copyright c 2010 by Stereotypesde All rights reserved
Designer    : Sascha Timplan
Foundry     : Stereotypesde
</metadata>
<defs>
<font id="StRydeThin" horiz-adv-x="1284" >
<font-face units-per-em="2048" ascent="1638" descent="-410" />
<missing-glyph horiz-adv-x="571" />
<glyph unicode=" "  horiz-adv-x="571" />
<glyph unicode="&#x09;" horiz-adv-x="571" />
<glyph unicode="&#xa0;" horiz-adv-x="571" />
<glyph unicode="!" horiz-adv-x="362" d="M123 57q0 59 57 60q59 0 60 -60q0 -57 -60 -57q-57 0 -57 57zM147 270v1153q14 10 31 11q35 0 35 -37v-1149q-12 -12 -33 -12q-33 -1 -33 34z" />
<glyph unicode="&#x22;" horiz-adv-x="460" d="M98 1169v242q0 25 43 25q29 0 38 -18.5t9 -78.5q0 -76 -15 -128t-40 -52t-35 10zM272 1169v242q0 25 43 25q29 0 38 -18.5t9 -78.5q0 -76 -15 -128t-40 -52t-35 10z" />
<glyph unicode="#" horiz-adv-x="1675" d="M41 328q0 39 55 39h357l98 548h-408l-4 7q-4 8 -4 20q0 39 55 39h371l84 467q14 10 31 10q35 0 29 -37l-78 -440h536l84 467q14 10 31 10q35 0 29 -37l-78 -440h397q8 -6 8 -31q0 -35 -82 -35h-333l-97 -548h410q8 -6 8 -31q0 -35 -82 -35h-348l-74 -424q-10 -8 -35 -8 q-35 0 -26 35l69 397h-536l-74 -424q-10 -8 -35 -8q-35 0 -26 35l69 397h-393l-4 6q-4 9 -4 21zM520 367h535l98 548h-537z" />
<glyph unicode="$" horiz-adv-x="1265" d="M137 172q0 31 23 39q66 -78 192.5 -122t272.5 -46v676q-252 86 -346.5 168t-94.5 227.5t106.5 239.5t334.5 100v193q14 10 30 10q35 0 35 -37v-168q129 -6 225.5 -45t143.5 -84q20 -20 20 -43q0 -12 -12 -22.5t-27 -10.5q-104 121 -350 135v-616q236 -76 340.5 -171 t104.5 -251q0 -164 -113 -258t-332 -104v-187q-12 -12 -33 -12q-33 0 -32 35v162q-221 2 -385 94q-103 55 -103 98zM244 1112q0 -117 85 -186.5t296 -139.5v598q-203 -4 -292 -79.5t-89 -192.5zM690 43q199 10 293 90t94 211q0 125 -86 204t-301 150v-655z" />
<glyph unicode="%" horiz-adv-x="1740" d="M82 1006q0 209 84 318.5t223 109.5t217 -107.5t78 -320.5q0 -426 -301 -426t-301 426zM141 1004q0 -367 242 -367t242 367q0 182 -61.5 276t-174.5 94t-180.5 -95t-67.5 -275zM557 35l518 1392q12 6 31 7q37 0 29 -31l-523 -1401q-12 -6 -39 -6q-22 0 -21 17q0 9 5 22z M997 422q0 209 84 318.5t223.5 109.5t217 -107.5t77.5 -320.5q0 -426 -301 -426t-301 426zM1057 420q0 -367 241.5 -367t241.5 367q0 182 -61.5 276.5t-174 94.5t-180 -95.5t-67.5 -275.5z" />
<glyph unicode="&#x26;" horiz-adv-x="1705" d="M109 422q0 338 350 440q-12 80 -13 164q0 403 416 404q70 0 120 -9.5t70.5 -23t20.5 -25.5t-4 -18h-203q-195 0 -275.5 -78t-80.5 -258q0 -258 120 -476t312 -345q117 121 185.5 299t72.5 346h-326q-8 16 -8 26q0 39 60 39h569q8 -6 8 -30q0 -35 -49 -35h-190 q-4 -176 -76 -362.5t-195 -315.5q176 -100 367 -101h174q6 -12 6 -26q0 -37 -174 -37q-215 0 -416 123q-164 -143 -364 -143q-231 0 -354 113.5t-123 328.5zM170 422q0 -184 109.5 -284.5t310.5 -100.5q170 0 309 119q-160 109 -274.5 278.5t-155.5 374.5 q-135 -41 -217 -139t-82 -248z" />
<glyph unicode="'" horiz-adv-x="286" d="M98 1169v242q0 25 43 25q29 0 38 -18.5t9 -78.5q0 -76 -15 -128t-40 -52t-35 10z" />
<glyph unicode="(" horiz-adv-x="378" d="M57 610q0 371 70 609.5t156 238.5q33 0 34 -35q-86 -55 -141 -270t-55 -543q0 -317 57.5 -539.5t143.5 -273.5q0 -43 -35 -43q-86 0 -158 253t-72 603z" />
<glyph unicode=")" horiz-adv-x="378" d="M57 1415q0 43 35 43q86 0 158 -253t72 -603q0 -371 -70 -609.5t-156 -238.5q-33 0 -35 35q86 55 141.5 270t55.5 543q0 317 -57.5 539.5t-143.5 273.5z" />
<glyph unicode="*" horiz-adv-x="1105" d="M166 1049q0 31 35 30l313 -4l-176 289q8 10 20 20q27 16 41 -12l156 -278l162 299q18 0 33 -9q25 -16 4 -49l-158 -260l340 6q4 -12 4 -28q0 -33 -39 -33l-307 4l174 -287q-4 -10 -20 -20q-31 -16 -50 18l-145 269l-164 -297q-14 0 -31 10q-27 14 -10 43l166 266l-342 -4 q-6 19 -6 27z" />
<glyph unicode="+" horiz-adv-x="1105" d="M123 543q0 39 41 39h356v389q6 8 31 8q35 0 35 -53v-344h389q8 -6 8 -31q0 -35 -43 -35h-354v-389q-16 -8 -31 -8q-35 0 -35 37v360h-389l-4 8q-4 7 -4 19z" />
<glyph unicode="," horiz-adv-x="286" d="M82 57q0 59 59 60q63 0 64 -97q0 -74 -20.5 -127t-49.5 -53q-25 0 -33 19q43 57 43 141q-25 0 -44 15t-19 42z" />
<glyph unicode="-" horiz-adv-x="884" d="M123 545q0 37 45 37h586q8 -8 8 -31q0 -35 -47 -35h-584q-8 17 -8 29z" />
<glyph unicode="." horiz-adv-x="280" d="M82 57q0 59 57 60q59 0 60 -60q0 -57 -60 -57q-57 0 -57 57z" />
<glyph unicode="/" horiz-adv-x="598" d="M94 -96l273 1544q14 10 30 10q35 0 29 -37l-270 -1544q-10 -8 -35 -8q-28 0 -28 23q-1 5 1 12z" />
<glyph unicode="0" horiz-adv-x="1198" d="M123 575q0 283 132 431.5t357 148.5q223 0 343 -146.5t120 -433.5q0 -580 -477 -579q-475 -1 -475 579zM182 573q0 -276 106.5 -397t309.5 -121q418 0 418 518q0 256 -104.5 389.5t-299.5 133.5q-197 0 -313.5 -135.5t-116.5 -387.5z" />
<glyph unicode="1" horiz-adv-x="909" d="M92 942q0 16 8 25q281 25 367 176q14 10 31 10q35 0 34 -37v-1050h297q8 -12 9 -31q0 -35 -50 -35h-636q-8 16 -9 31q0 18 11.5 26.5t46.5 8.5h266v968q-61 -57 -163.5 -90t-182.5 -33q-29 0 -29 31z" />
<glyph unicode="2" horiz-adv-x="1003" d="M51 35q0 20 17 31q299 178 421 274q330 254 330 491q0 274 -362 275q-127 0 -231.5 -50t-121.5 -114q-47 0 -47 31t44 71.5t140.5 77.5t215.5 37q420 0 420 -328q0 -102 -59.5 -210.5t-139.5 -189.5t-192.5 -164t-184.5 -126t-149 -84h792q8 -14 8 -28q0 -29 -39 -29 h-856q-6 19 -6 35z" />
<glyph unicode="3" horiz-adv-x="1060" d="M61 18q0 44 42 45q7 0 14 -2q0 -106 87 -188t277 -82q219 0 322.5 93t103.5 243q0 135 -97 216t-245 81h-67q-25 0 -25 31q0 18 8 34q199 0 292 83q91 81 91 215q0 135 -102 223q-100 86 -277 86q-139 0 -235 -57.5t-107 -137.5q-29 0 -40 6t-11 29q0 66 103.5 141.5 t291.5 75.5q201 0 320 -102.5t119 -259.5q0 -117 -65.5 -208t-172.5 -118v-4q121 -20 201 -105.5t80 -232.5q0 -176 -120 -282.5t-366 -106.5q-121 0 -209 31.5t-131 80t-62.5 91t-19.5 81.5z" />
<glyph unicode="4" horiz-adv-x="1167" d="M84 28.5q0 16.5 6 32.5l332 1033q8 6 33 6q39 0 24 -41l-327 -998h661v578q14 10 37 10q29 0 29 -28v-560h198q6 -8 6 -30q0 -31 -28 -31h-176v-305q-10 -8 -37 -8q-29 0 -29 32v281h-723q-6 12 -6 28.5z" />
<glyph unicode="5" horiz-adv-x="1079" d="M92 35q0 47 35 47q7 0 16 -2q0 -119 91.5 -213t285.5 -94q225 0 329.5 104.5t104.5 276.5q0 180 -111.5 267t-305.5 87q-106 0 -222 -33t-129 -33q-37 0 -36 35l18 662q16 10 41 10h743q8 -12 9 -31q0 -35 -50 -35h-678l-20 -583q152 70 324 69q229 0 355 -102t126 -317 q0 -195 -122 -315t-374 -120q-98 0 -177 24.5t-125 60.5t-76.5 81t-41 83t-10.5 71z" />
<glyph unicode="6" horiz-adv-x="1138" d="M123 645q0 770 495 770q117 0 207 -32.5t129 -70.5t39 -67q0 -20 -26 -37q-121 147 -349 148q-213 0 -317 -174t-115 -471q188 100 408 100q205 0 330 -99.5t125 -314.5q0 -186 -104.5 -301.5t-323.5 -115.5q-498 -1 -498 665zM186 637q2 -307 106.5 -453.5t325.5 -146.5 q195 0 282 100.5t87 263.5q0 172 -108.5 259.5t-284.5 87.5q-244 0 -408 -111z" />
<glyph unicode="7" horiz-adv-x="946" d="M0 1118q0 29 49 29h862q4 -12 4 -22.5t-10 -45.5l-475 -1339q-8 -6 -33 -6q-41 0 -26 41l469 1306h-832q-8 12 -8 37z" />
<glyph unicode="8" horiz-adv-x="1097" d="M92 371q0 156 80 248t199 126q-225 92 -226 340q0 154 106.5 242t293.5 88q199 0 306 -90t107 -250q0 -127 -68.5 -226t-174.5 -138q291 -100 291 -346q0 -178 -113 -281.5t-356 -103.5q-223 0 -334 106.5t-111 284.5zM152 367q0 -145 95 -237.5t290 -92.5q215 0 311 88 t96 231q0 139 -102.5 221t-259.5 111q-82 16 -121 27q-131 -23 -220 -108.5t-89 -239.5zM205 1085q0 -84 29.5 -145t89 -99t120 -58.5t148.5 -39.5l29 -6q127 25 201.5 117t74.5 223q0 129 -90 205t-256 76q-158 0 -252 -76t-94 -197z" />
<glyph unicode="9" horiz-adv-x="1126" d="M82 686q0 213 111.5 340t343.5 127q256 0 361.5 -166t105.5 -567q0 -356 -114 -529.5t-382 -173.5q-117 0 -218.5 34t-151.5 74t-50 69q0 18 27 34q39 -47 143 -100t250 -53q229 0 329.5 150.5t102.5 477.5q-162 -111 -438 -110q-182 0 -301 98t-119 295zM145 688 q0 -158 102.5 -248t256.5 -90q268 0 434 129q-6 338 -96 477.5t-303 139.5q-205 0 -299.5 -114t-94.5 -294z" />
<glyph unicode=":" horiz-adv-x="280" d="M82 57q0 59 57 60q59 0 60 -60q0 -57 -60 -57q-57 0 -57 57zM82 965q0 59 57 59q59 0 60 -59q0 -57 -60 -58q-57 1 -57 58z" />
<glyph unicode=";" horiz-adv-x="286" d="M82 57q0 59 59 60q63 0 64 -97q0 -74 -20.5 -127t-49.5 -53q-25 0 -33 19q43 57 43 141q-25 0 -44 15t-19 42zM88 965q0 59 57 59q59 0 60 -59q0 -57 -60 -58q-57 1 -57 58z" />
<glyph unicode="&#x3c;" horiz-adv-x="743" d="M102 494q0 18 13 30l489 473q6 4 19 4q8 0 18 -10t10 -18q0 -12 -14 -27l-467 -450l471 -443q8 -12 8 -22q0 -8 -9 -19.5t-17 -11.5q-14 0 -29 14l-483 455q-9 11 -9 25z" />
<glyph unicode="=" horiz-adv-x="1105" d="M123 356q0 33 33 33h821q6 -8 6 -31q0 -35 -33 -34h-821q-6 24 -6 32zM123 711q0 33 33 32h821q6 -10 6 -30q0 -35 -33 -35h-821q-6 25 -6 33z" />
<glyph unicode="&#x3e;" horiz-adv-x="743" d="M92 29q0 12 14 26l467 451l-471 442q-8 12 -8 23q0 8 9.5 19t17.5 11q14 0 29 -14l483 -455q8 -10 8 -24q0 -18 -12 -31l-490 -473q-6 -4 -18 -4q-8 0 -18.5 10.5t-10.5 18.5z" />
<glyph unicode="?" horiz-adv-x="1001" d="M68 1196q0 66 103 141.5t292 75.5q190 0 317 -111.5t127 -318.5q0 -143 -67.5 -242.5t-158.5 -142.5t-200 -51l6 -316q-16 -8 -36 -8q-23 0 -23 35l-6 311q0 25 8 33q184 4 301 98.5t117 282.5t-108.5 279.5t-278.5 91.5q-139 0 -235.5 -56.5t-106.5 -136.5q-29 0 -40 6 t-11 29zM408 57q0 59 57 60q59 0 59 -60q0 -57 -59 -57q-57 0 -57 57z" />
<glyph unicode="@" horiz-adv-x="1796" d="M82 461q0 371 224 594t593 223q362 0 586.5 -215t224.5 -551q0 -221 -108.5 -366.5t-255.5 -145.5q-162 0 -162 121v86q-219 -207 -414 -207q-125 0 -190.5 73.5t-65.5 192.5q0 94 64.5 156.5t185.5 71.5l420 32v156q0 176 -254 176q-96 0 -185.5 -22.5t-126.5 -44.5 q-27 6 -26 34q0 41 106.5 70t231.5 29q55 0 104 -10.5t99.5 -34t80 -71.5t29.5 -118v-545q0 -55 19.5 -72.5t76.5 -17.5q123 0 218.5 127t95.5 334q0 303 -209 499.5t-545 196.5q-342 0 -548 -204.5t-206 -546.5q0 -334 214 -535.5t528 -201.5q244 0 481 102q25 -14 25 -27 q0 -25 -27 -39q-197 -98 -481 -98q-340 0 -571.5 219.5t-231.5 579.5zM578 262q0 -88 51 -144.5t147 -56.5q182 0 408 213v193l-420 -33q-92 -8 -139 -54t-47 -118z" />
<glyph unicode="A" d="M41 10l561 1411q18 12 41 13q31 0 43 -35l557 -1379q-6 -20 -29 -20q-27 0 -34 23l-152 372h-768l-151 -377q-8 -18 -35 -18q-23 0 -33 10zM283 455h721l-363 891z" />
<glyph unicode="B" horiz-adv-x="1366" d="M246 33v1390q14 10 30 11h463q184 0 281.5 -80t97.5 -264q0 -258 -209 -340q293 -72 293 -351q0 -106 -41 -186t-109.5 -125t-149.5 -66.5t-173 -21.5h-448q-35 0 -35 33zM307 61h406q424 0 424 338q0 172 -118 243t-333 71h-379v-652zM307 772h410q340 8 340 315 q0 166 -82 228.5t-260 62.5h-408v-606z" />
<glyph unicode="C" horiz-adv-x="1355" d="M164 719q0 358 155.5 546.5t430.5 188.5q172 0 290.5 -59.5t178.5 -155.5q14 -23 14 -43q0 -10 -13.5 -17.5t-27.5 -2.5q-76 115 -177.5 165t-264.5 50q-246 0 -384.5 -175.5t-138.5 -496.5q0 -676 529 -676q305 0 458 207q12 4 25.5 -2t13.5 -23q0 -25 -18 -47 q-156 -199 -479 -198q-281 0 -436.5 180t-155.5 559z" />
<glyph unicode="D" horiz-adv-x="1452" d="M246 33v1390q14 10 30 11h275q387 0 562 -177.5t175 -547.5q0 -383 -166 -546t-499 -163h-342q-35 0 -35 33zM311 66h310q307 0 455.5 146t148.5 497q0 336 -155 498.5t-503 162.5h-256v-1304z" />
<glyph unicode="E" horiz-adv-x="1347" d="M246 35v1390q10 8 30 9h941q8 -6 8 -31q0 -35 -49 -35h-865v-594h770q8 -6 9 -31q0 -35 -50 -34h-729v-643h906q8 -6 8 -31q0 -35 -49 -35h-897q-33 0 -33 35z" />
<glyph unicode="F" horiz-adv-x="1327" d="M246 35v1390q10 8 30 9h941q8 -6 8 -31q0 -35 -49 -35h-865v-625h770q8 -6 9 -30q0 -35 -50 -35h-729v-672q-12 -6 -32 -6q-33 0 -33 35z" />
<glyph unicode="G" horiz-adv-x="1490" d="M164 719q0 350 170 542.5t428 192.5q137 0 255 -34t174 -72.5t56 -67.5q0 -16 -11 -25.5t-22 -5.5q-170 141 -448 142q-231 0 -385 -179.5t-154 -492.5q0 -176 43 -310.5t120 -212t170 -115.5t202 -38q135 0 262 71.5t203 188.5v330h-420q-6 10 -6 31q0 35 59 34h363 q63 0 63 -67v-621q-12 -12 -33 -12q-27 0 -26 35v184q-195 -238 -467 -237q-252 0 -424 185t-172 554z" />
<glyph unicode="H" horiz-adv-x="1529" d="M246 35v1388q14 10 30 11q35 0 35 -37v-639h908v665q14 10 30 11q35 0 35 -37v-1385q-12 -12 -33 -12q-33 0 -32 35v661h-908v-684q-12 -12 -32 -12q-33 0 -33 35z" />
<glyph unicode="I" horiz-adv-x="557" d="M246 35v1388q14 10 30 11q35 0 35 -37v-1385q-12 -12 -32 -12q-33 0 -33 35z" />
<glyph unicode="J" horiz-adv-x="749" d="M41 49q0 12 6 29h207q92 0 138 44t46 148v1153q16 10 33 11q33 0 33 -35v-1159q0 -131 -62.5 -185.5t-185.5 -54.5q-215 0 -215 49z" />
<glyph unicode="K" horiz-adv-x="1234" d="M246 33v1390q14 10 35 11q31 0 30 -37v-729q197 143 357.5 349t257.5 413q16 4 26 4q23 0 23 -23q0 -25 -33 -86q-156 -303 -420 -559q53 -55 134 -183l147 -237q66 -109 143.5 -196t136.5 -87h43q6 -10 7 -24q0 -39 -72 -39q-63 0 -146.5 89t-150.5 200l-152 243 q-84 133 -135 191q-76 -72 -166 -135v-578q-10 -10 -39 -10q-26 0 -26 33z" />
<glyph unicode="L" horiz-adv-x="1105" d="M246 35v1390q10 8 37 9q29 0 28 -37v-1331h746q8 -8 8 -31q0 -35 -49 -35h-737q-33 0 -33 35z" />
<glyph unicode="M" horiz-adv-x="1859" d="M205 8l88 1378q4 47 43 48q25 0 39 -7l551 -1261l508 1235q12 33 51 33q20 0 39 -15l131 -1411q-10 -8 -33 -8q-29 0 -31 23l-114 1323l-504 -1221q-12 -35 -49 -35q-33 0 -47 37l-531 1216l-80 -1320q-2 -23 -26 -23q-19 0 -35 8z" />
<glyph unicode="N" horiz-adv-x="1529" d="M246 33v1392q16 8 30 9q16 0 29 -15l918 -1300l-4 1304q14 10 30 11q35 0 35 -37v-1389q-10 -8 -33 -8q-18 0 -30 16l-914 1276l4 -1282q-14 -10 -35 -10q-30 0 -30 33z" />
<glyph unicode="O" horiz-adv-x="1497" d="M164 719q0 358 158.5 546.5t439.5 188.5q268 0 419.5 -188.5t151.5 -546.5q0 -739 -573 -739q-281 0 -438.5 180t-157.5 559zM225 719q0 -676 537 -676q510 0 510 676q0 324 -135.5 498t-374.5 174q-258 0 -397.5 -174t-139.5 -498z" />
<glyph unicode="P" horiz-adv-x="1261" d="M246 33v1392q10 8 30 9h463q176 0 277.5 -106.5t101.5 -303.5q0 -219 -123 -319.5t-325 -100.5h-359v-594q-14 -10 -37 -10q-28 0 -28 33zM311 659h334q195 0 303.5 82t108.5 281q0 356 -332 356h-414v-719z" />
<glyph unicode="Q" horiz-adv-x="1497" d="M164 719q0 358 158.5 546.5t439.5 188.5q268 0 419.5 -188.5t151.5 -546.5q0 -600 -381 -715q61 -131 143.5 -200.5t166.5 -69.5h100q4 -12 4 -19q0 -39 -90 -39q-236 0 -381 316q-63 -12 -135 -12q-281 0 -438.5 180t-157.5 559zM225 719q0 -676 537 -676q510 0 510 676 q0 324 -135.5 498t-374.5 174q-258 0 -397.5 -174t-139.5 -498z" />
<glyph unicode="R" horiz-adv-x="1368" d="M246 33v1390q14 10 30 11h463q391 0 391 -379q0 -172 -105 -274.5t-261 -121.5q59 -68 138 -227.5t149.5 -264t144.5 -104.5h43q6 -10 6 -24q0 -39 -71 -39q-63 0 -130 78t-117 177t-118 220t-121 180h-377v-645q-10 -10 -30 -10q-35 0 -35 33zM311 713h377 q162 0 271.5 85t109.5 257q0 178 -88 250.5t-266 72.5h-404v-665z" />
<glyph unicode="S" d="M143 172q0 31 23 39q68 -78 198 -123t275 -45q227 0 335.5 81t108.5 220q0 129 -91 208t-322 155q-276 92 -378 175t-102 232q0 147 108 243.5t327 96.5q164 0 276.5 -40t163.5 -91q20 -20 20 -43q0 -12 -12 -22.5t-26 -10.5q-119 137 -424 137q-195 0 -284 -76.5 t-89 -195.5q0 -123 96 -194.5t350 -151.5q233 -74 339 -168t106 -254q0 -174 -127 -269t-371 -95q-225 0 -397 94q-103 55 -103 98z" />
<glyph unicode="T" horiz-adv-x="1257" d="M41 1403q0 31 49 31h1118q8 -10 9 -31q0 -35 -50 -35h-505v-1358q-10 -10 -37 -10q-29 0 -29 33v1335h-547q-8 17 -8 35z" />
<glyph unicode="U" horiz-adv-x="1470" d="M236 518v905q14 10 30 11q35 0 35 -37v-862q0 -254 99.5 -373t334.5 -119q240 0 342.5 118t102.5 371v891q14 10 30 11q35 0 35 -37v-879q0 -268 -124 -403t-386 -135t-380.5 132t-118.5 406z" />
<glyph unicode="V" horiz-adv-x="1329" d="M61 1427q16 6 35 7q23 0 35 -27l543 -1323q141 231 323.5 667.5t216.5 673.5q14 8 31 9q23 0 23 -16.5t-8 -63.5q-39 -217 -219.5 -646t-342.5 -702q-31 -6 -34 -6q-23 0 -37 31z" />
<glyph unicode="W" horiz-adv-x="2086" d="M41 1427q16 6 35 7q23 0 35 -27l522 -1323q90 150 216 401.5t212 475.5l-193 466q16 6 35 7q23 0 35 -27l555 -1323q131 215 298 654.5t202 686.5q14 8 30 9q23 0 23 -16.5t-8 -63.5q-41 -231 -205 -661.5t-315 -686.5q-31 -6 -35 -6q-23 0 -37 31l-354 856 q-174 -438 -435 -881q-31 -6 -34 -6q-23 0 -37 31z" />
<glyph unicode="X" horiz-adv-x="1368" d="M123 25l524 718l-473 674q6 16 29 17q35 0 61 -37l426 -600l426 608q18 29 49 29q27 0 33 -15l-473 -669l520 -730q-12 -20 -41 -20q-33 0 -47 20l-475 676l-481 -667q-20 -29 -47 -29q-23 0 -31 25z" />
<glyph unicode="Y" horiz-adv-x="1214" d="M102 1417q16 16 39 17q25 0 33 -23q172 -537 449 -901q137 186 275 478t161 439q12 6 31 7q23 0 22 -25q-4 -131 -165 -452.5t-296 -495.5v-451q-14 -10 -35 -10q-31 0 -30 35v426q-304 395 -484 956z" />
<glyph unicode="Z" horiz-adv-x="1343" d="M82 27q0 20 16 41l983 1300h-940l-4 8q-4 6 -4 19q0 39 53 39h977q8 -6 8 -25q0 -16 -14 -37l-979 -1304h1075q8 -12 9 -31q0 -37 -54 -37h-1122q-4 17 -4 27z" />
<glyph unicode="[" horiz-adv-x="520" d="M121 -209v1653q23 14 59 14h285q8 -8 8 -33q0 -35 -33 -34h-256v-1565h281q8 -12 8 -33q0 -37 -39 -37h-303q-10 15 -10 35z" />
<glyph unicode="\" horiz-adv-x="598" d="M92 1421q-6 37 29 37q16 0 31 -10l272 -1544q2 -7 1 -12q0 -23 -28 -23q-25 0 -35 8z" />
<glyph unicode="]" horiz-adv-x="520" d="M121 -213q0 35 33 35h256v1564h-281q-8 12 -8 33q0 37 39 37h303q10 -14 10 -35v-1652q-23 -14 -59 -15h-285q-8 8 -8 33z" />
<glyph unicode="^" horiz-adv-x="993" d="M180 1182q29 18 94.5 72.5t120 93t84.5 38.5q27 0 80 -37.5t121 -92t102 -74.5q-10 -35 -43 -35q-12 0 -26 8q-29 14 -111 77.5t-121 88.5q-39 -25 -120.5 -88.5t-110.5 -77.5q-14 -8 -27 -8q-33 0 -43 35z" />
<glyph unicode="_" horiz-adv-x="1265" d="M41 -213q0 35 43 35h1135q6 -6 6 -31q0 -35 -31 -35h-1147q-6 25 -6 31z" />
<glyph unicode="`" horiz-adv-x="1120" d="M322 1348q0 39 47 38q27 0 82 -38.5t121.5 -93t95.5 -72.5q-10 -35 -43 -35q-18 0 -72 39l-121 90q-67 52 -110 72z" />
<glyph unicode="a" horiz-adv-x="1007" d="M82 264q0 227 240 250l413 37v178q0 193 -243 193q-96 0 -186.5 -30t-123.5 -63q-25 2 -24 29q0 45 107.5 85t221.5 40q78 0 141.5 -17.5t116 -77t52.5 -157.5v-590q0 -45 14 -63.5t47 -18.5h57q10 -14 11 -30q0 -29 -84 -29q-106 0 -107 129v66q-186 -215 -395 -215 q-129 0 -193.5 78.5t-64.5 205.5zM143 260q0 -96 50.5 -158.5t146.5 -62.5q211 0 395 235v213l-413 -36q-179 -19 -179 -191z" />
<glyph unicode="b" horiz-adv-x="1064" d="M164 135v1288q14 10 35 11q29 0 28 -27v-584q125 160 322 160q164 0 268.5 -124t104.5 -363q0 -264 -110 -390t-298 -126q-174 0 -301 83q-49 37 -49 72zM227 133q119 -96 285 -96q162 0 255 112.5t93 348.5q0 213 -89 318.5t-226 105.5q-190 0 -318 -185v-604z" />
<glyph unicode="c" horiz-adv-x="997" d="M143 485q0 254 121 376t297 122q80 0 138.5 -11t82 -22.5t62.5 -36.5q27 -14 30 -41q4 -16 -20 -32q-74 47 -127 63.5t-166 16.5q-156 0 -254 -104.5t-98 -330.5q0 -207 101.5 -325.5t271.5 -118.5q94 0 175 28.5t111 59.5q20 -12 21 -29q0 -31 -49 -59 q-106 -61 -256 -61q-201 0 -321 133.5t-120 371.5z" />
<glyph unicode="d" horiz-adv-x="1173" d="M143 489q0 131 38 230.5t100.5 155t134 82t149.5 26.5q184 0 299 -129v547q0 33 29 33q18 0 35 -9v-1294q0 -70 69 -70h66q8 -10 8 -30q0 -31 -76 -31q-131 0 -131 117v2q-143 -139 -315 -139q-180 0 -293 123.5t-113 385.5zM205 487q0 -225 95 -337.5t239 -112.5 q205 0 325 158v577q-61 80 -124.5 115t-176.5 35q-137 0 -247.5 -107t-110.5 -328z" />
<glyph unicode="e" horiz-adv-x="1030" d="M133 467q0 250 123 383t299 133q174 0 263 -114.5t89 -288.5q0 -41 -10 -68h-700v-47q0 -197 99 -310.5t259 -113.5q104 0 189 35t126 71q27 -8 27 -32q0 -23 -16 -35q-121 -100 -328 -100q-186 0 -303 132t-117 355zM203 573h641q0 158 -73 255.5t-220 97.5 q-133 0 -228 -91.5t-120 -261.5z" />
<glyph unicode="f" horiz-adv-x="704" d="M123 928q0 35 47 35h100v239q0 129 55.5 180.5t161.5 51.5q76 0 117 -6.5t50.5 -13.5t9.5 -21q0 -16 -9 -25h-157q-86 0 -124 -37t-38 -137v-231h278q4 -12 4 -31q0 -33 -38 -33h-244v-874q0 -25 -35 -25q-20 0 -31 10v889h-141q-6 11 -6 29z" />
<glyph unicode="g" horiz-adv-x="1026" d="M102 -338q0 33 33 41q47 -70 140.5 -118t224.5 -48q188 0 295.5 70.5t107.5 199.5q0 139 -158 140h-337q-129 0 -182.5 45t-53.5 131q0 90 57 209q-88 88 -88 282q0 180 91.5 274.5t248.5 94.5q113 0 191 -53q0 33 53 33h176q6 -6 6 -29q0 -35 -63 -35h-135 q92 -96 92 -285q0 -365 -334 -364q-115 0 -186 43q-41 -80 -41 -156q0 -66 37.5 -97.5t146.5 -31.5h340q102 0 151.5 -55t49.5 -137q0 -154 -120 -247t-341 -93q-174 0 -288 65.5t-114 120.5zM205 614q0 -162 67.5 -232.5t194.5 -70.5q268 0 268 303q0 152 -65.5 230 t-188.5 78q-129 0 -202.5 -80.5t-73.5 -227.5z" />
<glyph unicode="h" horiz-adv-x="1099" d="M164 33v1392q16 8 33 9q33 0 32 -37v-666q68 115 176.5 183.5t227.5 68.5q129 0 196.5 -79t67.5 -226v-563q0 -55 47 -56h66q8 -8 8 -26q0 -33 -86 -33q-100 0 -101 121v549q0 252 -200 252q-121 0 -234.5 -86t-167.5 -224v-602q-10 -10 -32 -10q-33 0 -33 33z" />
<glyph unicode="i" horiz-adv-x="581" d="M143 924q0 39 86 39q55 0 76 -24t21 -85v-739q0 -47 49 -47h55q8 -8 8 -27q0 -41 -86 -41q-88 0 -88 80v758q0 53 -53 53h-57q-11 15 -11 33zM225 1255q0 59 58 60q59 0 59 -60q0 -57 -59 -57q-58 0 -58 57z" />
<glyph unicode="j" horiz-adv-x="585" d="M0 -289q0 12 4 23h148q150 0 149 147v957q0 53 -47 53h-86q-6 12 -6 29q0 43 88 43q61 0 89 -27t28 -88v-981q0 -205 -220 -205q-68 0 -107.5 14.5t-39.5 34.5zM262 1255q0 59 57 60q59 0 60 -60q0 -57 -60 -57q-57 0 -57 57z" />
<glyph unicode="k" horiz-adv-x="860" d="M164 35v1388q14 10 31 11q35 0 34 -37v-877q166 55 282 187.5t116 246.5q10 8 28 9q27 0 27 -23q0 -117 -120 -258t-257 -188q53 -27 114.5 -102t107.5 -146.5t109.5 -129t123.5 -57.5h57q4 -8 4 -20q0 -39 -69.5 -39t-143 62.5t-127 141.5t-123 159.5t-129.5 107.5v-459 q-12 -12 -32 -12q-33 0 -33 35z" />
<glyph unicode="l" horiz-adv-x="600" d="M184 231v1194q14 8 31 9q35 0 35 -29v-1153q0 -111 34.5 -148.5t131.5 -37.5h141q2 -6 2 -27q0 -39 -143 -39q-123 0 -177.5 50t-54.5 181z" />
<glyph unicode="m" horiz-adv-x="1814" d="M102 928q0 35 93 35q59 0 83.5 -25t24.5 -84v-115q156 244 361 244q231 0 266 -252q162 252 387 252q135 0 211 -90t76 -256v-518q0 -55 36 -56h86q6 -12 7 -28q0 -35 -101 -35q-96 0 -96 106v523q0 145 -58.5 219t-164.5 74q-213 0 -377 -289v-514q0 -55 37 -56h74 q6 -12 6 -30q0 -33 -90 -33q-49 0 -71 24.5t-22 81.5v531q0 139 -54 212t-154 73q-203 0 -359 -287v-625q-16 -10 -33 -10q-33 0 -32 33v805q0 55 -48 55h-81q-7 17 -7 35z" />
<glyph unicode="n" horiz-adv-x="1191" d="M102 928q0 35 93 35q59 0 83.5 -25t24.5 -84v-131q164 260 393 260q135 0 210 -90t75 -256v-518q0 -55 37 -56h86q6 -12 6 -28q0 -35 -98 -35q-96 0 -97 106v523q0 145 -59 219t-164 74q-215 0 -389 -308v-604q-16 -10 -33 -10q-33 0 -32 33v805q0 55 -48 55h-81 q-7 17 -7 35z" />
<glyph unicode="o" horiz-adv-x="1124" d="M143 481q0 244 117 373t315 129q193 0 299.5 -127t106.5 -375q0 -502 -422 -501q-416 -1 -416 501zM207 481q0 -233 90 -335.5t262 -102.5q359 0 359 438q0 215 -89.5 327t-253.5 112q-170 0 -269 -114t-99 -325z" />
<glyph unicode="p" horiz-adv-x="1144" d="M82 928q0 35 90 35q59 0 83 -25t24 -84v-68q66 88 157.5 142.5t194.5 54.5q371 0 370 -485q0 -260 -114.5 -389t-282.5 -129q-188 0 -325 155v-559q-16 -10 -31 -10q-33 0 -33 33v1239q0 55 -45 55h-82q-6 17 -6 35zM279 229q139 -188 323 -188q147 0 242.5 110.5 t95.5 342.5q0 428 -315 428q-209 0 -346 -230v-463z" />
<glyph unicode="q" horiz-adv-x="1136" d="M143 487q0 242 114 369t278 127q213 0 327 -121q6 100 111 101q82 0 82 -37q0 -12 -6 -25h-74q-49 0 -49 -57v-1245q-16 -8 -35 -9q-29 0 -29 33v479q-129 -123 -323 -122q-170 0 -283 128.5t-113 378.5zM205 487q0 -215 99 -332.5t241 -117.5q197 0 317 139v586 q-102 160 -330 160q-133 0 -230 -112t-97 -323z" />
<glyph unicode="r" horiz-adv-x="833" d="M82 922q0 41 98 41q106 0 107 -125v-115q72 111 169 185.5t193 74.5q74 0 119 -32.5t45 -102.5q0 -29 -27 -29q-18 0 -30 17q0 86 -109 86q-90 0 -191.5 -83t-168.5 -210v-619q-14 -10 -35 -10q-31 0 -31 33v796q0 61 -51 62h-82q-6 15 -6 31z" />
<glyph unicode="s" horiz-adv-x="946" d="M119 115q0 33 26 41q39 -39 136.5 -78t185.5 -39q152 0 222.5 55.5t70.5 143.5q0 94 -62.5 144t-212.5 81q-186 37 -264 96t-78 182q0 100 83 171t233 71q141 0 235 -43t94 -88q0 -33 -38 -33q-29 39 -104 67.5t-189 28.5q-127 0 -187.5 -51t-60.5 -131q0 -86 68.5 -131 t222.5 -78q174 -35 247.5 -100.5t73.5 -183.5q0 -260 -350 -260q-131 0 -241.5 48t-110.5 87z" />
<glyph unicode="t" horiz-adv-x="724" d="M102 928q0 35 45 35h84v301q12 8 33 8q33 0 33 -35v-274h360q6 -6 7 -29q0 -35 -56 -35h-311v-651q0 -106 36 -145.5t113 -39.5h211q4 -6 5 -18q0 -45 -216 -45q-106 0 -160.5 49t-54.5 178v672h-120q-9 13 -9 29z" />
<glyph unicode="u" horiz-adv-x="1185" d="M82 928q0 35 102 35q57 0 81 -26t24 -85v-535q0 -150 50 -213t150 -63q246 0 408 319v594q14 8 35 9q29 0 29 -29v-815q0 -55 40 -56h78q4 -16 4 -22q0 -41 -98 -41q-47 0 -67.5 23.5t-20.5 82.5v140q-168 -266 -408 -266q-139 0 -203.5 75.5t-64.5 257.5v527 q0 55 -47 55h-88q-4 17 -4 33z" />
<glyph unicode="v" horiz-adv-x="1034" d="M20 934q0 29 80 29q76 0 99 -56l325 -823q131 186 228.5 411.5t97.5 348.5q0 63 -70 63h-59q-6 12 -6 27q0 29 84 29q55 0 83.5 -25t28.5 -88q0 -133 -102 -361.5t-229 -420.5q-43 -68 -70 -68q-12 0 -21 4l-337 866q-16 37 -48 37h-77q-7 13 -7 27z" />
<glyph unicode="w" horiz-adv-x="1579" d="M20 930q0 33 76 33q70 0 92 -60l256 -819q115 180 208 424t93 356q0 43 -32 43h-64q-4 12 -4 25q0 31 94 31q51 0 74 -60l285 -821q125 170 210 399.5t85 368.5q0 57 -52 57h-79q-6 12 -7 27q0 29 91 29q57 0 83.5 -27t26.5 -90q0 -150 -92 -382.5t-209 -395.5l-15 -22 l-14 -19q-4 -6 -11 -13.5t-13 -10.5t-12 -3q-12 0 -25 6l-274 787q-31 -162 -117 -370t-180 -366q-35 -57 -62 -57q-16 0 -26 10l-269 862q-8 35 -41 35h-69q-7 11 -7 23z" />
<glyph unicode="x" horiz-adv-x="1079" d="M102 928q0 35 93 35q68 0 104 -54l240 -362l305 391q20 25 45 25q33 0 41 -23l-361 -440l271 -408q27 -39 65 -39h68q4 -6 4 -22q0 -31 -78 -31t-113 51l-260 398l-329 -424q-20 -25 -41 -25q-12 0 -25.5 9t-15.5 16l381 469l-250 383q-23 31 -51 30h-89q-4 13 -4 21z " />
<glyph unicode="y" horiz-adv-x="1079" d="M20 930q0 33 80 33q45 0 66.5 -16.5t38.5 -55.5l315 -787q16 -43 47 -43h8q123 240 220.5 474.5t97.5 318.5q0 53 -49 53h-82q-4 12 -4 23q0 33 78 33q121 0 120 -103q0 -141 -187 -544.5t-298 -559.5q-70 -96 -135.5 -131t-149.5 -35q-121 0 -120 45q0 20 8 29h123 q41 0 69.5 6t72.5 37t85 90q55 80 119 203q-47 0 -72 59l-321 813q-14 35 -46 35h-79q-5 13 -5 23z" />
<glyph unicode="z" horiz-adv-x="1028" d="M102 25q0 18 15 34l674 840h-656q-8 12 -8 29q0 35 37 35h715q6 -12 6 -23q0 -23 -15 -37l-675 -840h725q6 -6 6 -28q0 -35 -58 -35h-757q-9 13 -9 25z" />
<glyph unicode="{" horiz-adv-x="561" d="M86 608q0 31 12 43h5q40 0 68 34q30 36 30 77v518q0 96 49 137t121 41q123 0 123 -39q0 -16 -13 -26h-116q-45 0 -73 -31t-28 -90v-510q0 -76 -25.5 -112t-56.5 -40v-4q29 -2 55.5 -42t26.5 -115v-533q0 -94 96 -94h125q8 -10 9 -29q0 -39 -146 -39q-68 0 -107.5 43 t-39.5 133v529q0 88 -78 100q-37 10 -37 49z" />
<glyph unicode="|" horiz-adv-x="516" d="M227 -211v1659q14 10 39 10q27 0 27 -24v-1674q-12 -6 -37 -6q-29 0 -29 35z" />
<glyph unicode="}" horiz-adv-x="561" d="M86 -207q0 16 12 27h117q45 0 72.5 30.5t27.5 90.5v510q0 76 26 111.5t56 39.5v4q-29 2 -55.5 42t-26.5 116v532q0 94 -96 95h-125q-8 10 -8 28q0 39 145 39q68 0 108 -43t40 -133v-528q0 -88 78 -101q37 -10 37 -49q0 -31 -13 -43h-4q-40 0 -68 -34q-30 -36 -30 -76 v-519q0 -96 -49 -137t-121 -41q-123 0 -123 39z" />
<glyph unicode="~" horiz-adv-x="1097" d="M111 1228.5q0 22.5 47 53.5t102 31q51 0 169 -33t165 -33q82 0 131 49q20 -14 20 -39q0 -29 -35.5 -51t-99.5 -22q-55 0 -182 31.5t-164 31.5q-39 0 -78 -20.5t-47 -36.5q-28 16 -28 38.5z" />
<glyph unicode="&#xa1;" horiz-adv-x="251" d="M-209 905q0 57 59 58q57 0 58 -58q0 -59 -58 -59q-59 0 -59 59zM-182 -434v1149q12 12 32 12q33 0 33 -35v-1153q-14 -10 -30 -10q-35 0 -35 37z" />
<glyph unicode="&#xa2;" horiz-adv-x="1067" d="M150 485q0 246 124.5 369t311.5 129v150q14 10 30 10q35 0 35 -37v-125q72 -2 128.5 -14.5t78 -21.5t64.5 -32q27 -12 32 -41q4 -14 -22 -32q-78 43 -130 60.5t-151 19.5v-879q98 2 183.5 30.5t113.5 57.5q23 -12 23 -29q1 -35 -53 -59q-109 -57 -267 -61v-132 q-12 -12 -33 -12q-33 0 -32 35v111q-201 14 -318.5 146t-117.5 357zM213 485q0 -193 100.5 -310.5t272.5 -131.5v877q-166 -6 -269.5 -112t-103.5 -323z" />
<glyph unicode="&#xa3;" horiz-adv-x="1185" d="M18 31q0 35 35 35q135 0 156 546h-135l-4 6q-4 8 -4 21q0 39 55 39h90q2 39 2 127q0 102 9 186t38 169t76 142.5t127 93.5t186 36q117 0 209 -21.5t133 -46.5t41 -45q0 -18 -22 -33q-111 86 -361 86q-113 0 -189.5 -47t-114.5 -134t-53.5 -180t-15.5 -212q0 -82 -2 -121 h644q8 -6 8 -31q0 -35 -82 -35h-572q-12 -428 -100 -546h954q8 -12 9 -31q0 -35 -50 -35h-1058q-9 17 -9 31z" />
<glyph unicode="&#xa4;" horiz-adv-x="1097" d="M129 952l176 -184q104 88 240 88q119 0 219 -74l131 156q20 25 45 25q33 0 41 -23l-172 -197q104 -111 104 -256q0 -141 -94 -245l154 -152q21 -21 20 -38v-3q0 -12 -9 -24.5t-17 -14.5l-189 193q-100 -84 -233 -84q-117 0 -213 67l-135 -161q-20 -25 -39 -25 q-12 0 -25.5 9t-15.5 16l172 198q-113 109 -113 264q0 137 88 238l-139 141q-21 24 -21 44q0 32 25 42zM238 487q0 -127 90 -217t217 -90t217 90t90 217t-90 217.5t-217 90.5t-217 -90.5t-90 -217.5z" />
<glyph unicode="&#xa5;" horiz-adv-x="1196" d="M102 1417q16 16 39 17q25 0 33 -23q172 -537 449 -901q137 186 275 478t161 439q12 6 31 7q23 0 22 -25q-4 -111 -122 -364.5t-251 -458.5h279q8 -6 8 -31q0 -35 -82 -35h-250q-8 -14 -43 -59v-82h367q8 -6 8 -31q0 -35 -82 -35h-293v-303q-14 -10 -35 -10q-31 0 -30 35 v278h-353l-4 6q-4 8 -4 21q0 39 56 39h305v82l-45 59h-308l-4 8q-4 6 -4 19q0 39 56 39h215q-242 358 -394 831z" />
<glyph unicode="&#xa6;" horiz-adv-x="516" d="M227 -211v727q14 10 31 10q35 0 35 -37v-722q-12 -12 -33 -13q-33 0 -33 35zM227 721v727q14 10 31 10q35 0 35 -37v-723q-12 -12 -33 -12q-33 0 -33 35z" />
<glyph unicode="&#xa7;" horiz-adv-x="1220" d="M158 765q0 86 37 149q39 67 110 133q-82 66 -82 182q0 106 101.5 181t306.5 75q170 0 270 -55.5t100 -116.5q0 -33 -43 -33q-20 57 -104 97t-236 40q-326 0 -325 -194q0 -86 82 -140.5t248 -93.5q219 -51 328.5 -126t111.5 -214v-5q0 -155 -127 -292q74 -57 74 -145 q0 -135 -113 -208t-301 -73q-158 0 -269.5 56.5t-111.5 105.5q0 31 29 41q106 -143 364 -143q164 0 251 56q85 55 85 160v5q-2 72 -82 117t-254 88q-94 23 -147 38t-119 42.5t-100.5 60.5t-58.5 84q-25 56 -25 128zM237.5 673q12.5 -34 45 -61.5t57.5 -45t86 -39t94 -32 t117 -32.5q184 -47 248 -80q53 47 85 118q30 66 30 135q0 4 -1 9q-2 106 -99 174t-304 117q-166 39 -238 78q-133 -107 -133 -260q0 -47 12.5 -81z" />
<glyph unicode="&#xa8;" horiz-adv-x="962" d="M188 1239q0 59 58 59q59 0 59 -59q0 -57 -59 -57q-58 0 -58 57zM625 1239q0 59 57 59q59 0 59 -59q0 -57 -59 -57q-57 0 -57 57z" />
<glyph unicode="&#xa9;" horiz-adv-x="1658" d="M92 717q0 340 200 538.5t537.5 198.5t537.5 -198.5t200 -538.5q0 -336 -201 -536.5t-537 -200.5q-338 0 -537.5 200.5t-199.5 536.5zM152 717q0 -311 184 -494.5t493.5 -183.5t493.5 183.5t184 494.5q0 313 -183 495.5t-494.5 182.5t-494.5 -182.5t-183 -495.5zM465 729 q0 215 104.5 319.5t251.5 104.5q143 0 242 -59q23 -10 27 -39q4 -12 -21 -27q-63 39 -108.5 52.5t-139.5 13.5q-131 0 -214 -88t-83 -277q0 -174 86 -274.5t230 -100.5q78 0 146.5 24.5t94.5 49.5q18 -10 19 -25q0 -27 -41 -51q-94 -53 -219 -53q-168 0 -271.5 114.5 t-103.5 315.5z" />
<glyph unicode="&#xaa;" horiz-adv-x="573" d="M41 864q0 57 38 92t109 39l224 17v65q0 96 -136 97q-117 0 -174 -41q-16 4 -16 28q0 29 61.5 48.5t131.5 19.5q184 0 184 -139v-285q0 -43 45 -43q8 0 20 4q6 -12 7 -21q0 -29 -43 -28q-80 0 -80 69v17q-100 -88 -224 -88q-72 0 -109.5 40.5t-37.5 108.5zM94 862 q0 -41 26.5 -67.5t76.5 -26.5q115 0 215 82v115l-222 -19q-96 -6 -96 -84z" />
<glyph unicode="&#xab;" horiz-adv-x="993" d="M102 494q0 18 13 30l354 391q6 4 20 5q8 0 16.5 -9.5t8.5 -17.5q0 -14 -14 -29l-330 -366l338 -375q4 -12 4 -20.5t-7 -15.5t-16 -7q-14 0 -28 14l-350 375q-9 11 -9 25zM479 494q0 18 13 30l354 391q6 4 20 5q8 0 16.5 -9.5t8.5 -17.5q0 -14 -14 -29l-330 -366l338 -375 q4 -12 4 -20.5t-7.5 -15.5t-15.5 -7q-14 0 -28 14l-351 375q-8 11 -8 25z" />
<glyph unicode="&#xac;" horiz-adv-x="1146" d="M123 668q0 33 33 32h821q6 -8 6 -30v-379q-12 -12 -33 -12q-33 0 -32 34v322h-789q-6 25 -6 33z" />
<glyph unicode="&#xad;" horiz-adv-x="884" d="M123 545q0 37 45 37h586q8 -8 8 -31q0 -35 -47 -35h-584q-8 17 -8 29z" />
<glyph unicode="&#xae;" horiz-adv-x="1208" d="M92 922q0 236 138.5 374t373.5 138q233 0 372.5 -138.5t139.5 -373.5q0 -233 -139 -372.5t-373 -139.5q-236 0 -374 139.5t-138 372.5zM150 922q0 -209 122.5 -332t331.5 -123t332 123t123 332q0 211 -123 332.5t-332 121.5t-331.5 -121.5t-122.5 -332.5zM432 676v508 q12 6 33 6h180q164 0 164 -152q0 -61 -37 -101t-94 -52q16 -20 46 -70.5t53.5 -80t47.5 -29.5h23q6 -6 6 -23q0 -37 -49 -37q-39 0 -69.5 39t-63.5 103.5t-58 93.5h-116v-230q-6 -6 -33 -6q-33 0 -33 31zM498 934h123q55 0 91 26.5t36 77.5q0 98 -115 99h-135v-203z" />
<glyph unicode="&#xaf;" horiz-adv-x="915" d="M111 1247q0 39 55 39h575q8 -6 9 -31q0 -35 -82 -34h-549l-4 8q-4 6 -4 18z" />
<glyph unicode="&#xb0;" horiz-adv-x="653" d="M82 1190q0 102 71.5 174t172 72t173 -73t72.5 -173t-71.5 -172t-173.5 -72q-100 0 -172 72t-72 172zM141 1190q0 -78 54.5 -132t132 -54t132 54t54.5 132t-54.5 132t-132 54t-132 -54t-54.5 -132z" />
<glyph unicode="&#xb1;" horiz-adv-x="1105" d="M123 33q0 33 33 33h821q6 -8 6 -31q0 -35 -33 -35h-821q-6 25 -6 33zM123 588q0 39 41 39h356v389q6 8 31 8q35 0 35 -53v-344h389q8 -6 8 -31q0 -35 -43 -35h-354v-389q-16 -8 -31 -8q-35 0 -35 37v360h-389l-4 8q-4 7 -4 19z" />
<glyph unicode="&#xb2;" horiz-adv-x="681" d="M43 618q0 23 16 37q59 39 77 52l83 58q66 46 94 73l80 75q51 49 75 88t44 90.5t20 98.5q0 88 -61 136t-162 48q-80 0 -146.5 -34.5t-80.5 -79.5q-35 6 -35 34q0 41 74 89.5t184 48.5q135 0 211 -62.5t76 -173.5q0 -90 -50 -181t-131 -165t-144.5 -120t-129.5 -85v-6 l496 4q6 -16 6 -31q0 -29 -29 -28h-561q-6 14 -6 34z" />
<glyph unicode="&#xb3;" horiz-adv-x="679" d="M47 748q0 37 37 36q8 -59 61.5 -104t163.5 -45q125 0 184.5 51t59.5 133q0 76 -55.5 120t-143.5 44h-41q-20 0 -20 27q0 10 6 28q117 0 173 46q54 44 54 117q0 79 -57 125t-160 46q-82 0 -140 -30.5t-69 -75.5q-35 4 -34 32q0 43 64.5 88.5t182.5 45.5q127 0 200 -62.5 t73 -159.5q0 -68 -40 -123t-104 -69v-2q72 -12 121 -63.5t49 -139.5q0 -104 -74.5 -168.5t-226.5 -64.5q-139 0 -201.5 55.5t-62.5 112.5z" />
<glyph unicode="&#xb4;" horiz-adv-x="1064" d="M326 1182q29 18 95 72.5t121.5 93t82.5 38.5q47 0 47 -38q-43 -20 -111 -72l-121 -90q-53 -39 -71 -39q-33 0 -43 35z" />
<glyph unicode="&#xb5;" horiz-adv-x="1269" d="M82 928q0 35 106 35q35 0 59.5 -13.5t36 -31t15.5 -51t4 -57.5t-2 -69t-2 -67v-357q0 -150 55.5 -213t167.5 -63q135 0 258 82t193 221v610q14 8 33 9q29 0 28 -29v-815q0 -31 9.5 -43.5t33.5 -12.5h86q4 -16 4 -22q0 -41 -102 -41q-51 0 -71.5 23.5t-20.5 82.5v142 q-182 -268 -449 -268q-162 0 -227 81v-462q-10 -8 -35 -9q-12 0 -19 8.5t-9.5 24t-2.5 28.5t1 34.5t1 29.5v1125q0 55 -51 55h-96q-4 17 -4 33z" />
<glyph unicode="&#xb6;" horiz-adv-x="1249" d="M137 1004q0 180 123 305t313 125h545q8 -10 8 -31q0 -35 -49 -35h-133v-1638q-12 -12 -33 -13q-33 0 -32 35v1616h-240v-1393q0 -90 -39 -129t-96 -39q-35 0 -35 43q104 6 104 119v606q-178 0 -307 125.5t-129 303.5z" />
<glyph unicode="&#xb7;" horiz-adv-x="280" d="M82 537q0 59 57 59q59 0 60 -59q0 -57 -60 -58q-57 1 -57 58z" />
<glyph unicode="&#xb8;" horiz-adv-x="1150" d="M430 -307q0 29 39 37q4 -18 31.5 -35t62.5 -17q43 0 71 23t28 70q0 86 -121 94q-10 4 -11 35l2 131l64 -2l-6 -111q57 -4 94 -40t37 -109q0 -72 -44 -110t-112 -38q-66 0 -100.5 22.5t-34.5 49.5z" />
<glyph unicode="&#xb9;" horiz-adv-x="600" d="M66 1288q0 14 8 23q178 16 225 119q12 6 31 6q31 0 30 -29v-764h183q8 -8 8 -27q0 -33 -35 -32h-412q-8 16 -8 28q0 31 43 31h160v696q-41 -39 -100.5 -60.5t-106.5 -21.5q-26 0 -26 31z" />
<glyph unicode="&#xba;" horiz-adv-x="622" d="M78 973q0 129 64.5 194.5t174.5 65.5q106 0 167 -65.5t61 -194.5q0 -258 -236 -258q-231 0 -231 258zM135 973q0 -205 174 -205q178 0 178 205t-170 205q-84 0 -133 -53.5t-49 -151.5z" />
<glyph unicode="&#xbb;" horiz-adv-x="993" d="M102 106q0 14 15 29l329 367l-337 375q-4 12 -4.5 20t7 15.5t15.5 7.5q14 0 29 -15l350 -375q8 -10 8 -24q0 -18 -12 -31l-355 -391q-6 -4 -20 -4q-8 0 -16.5 9t-8.5 17zM479 106q0 14 15 29l329 367l-338 375q-4 12 -4 20t7.5 15.5t15.5 7.5q14 0 28 -15l351 -375 q8 -10 8 -24q0 -18 -12 -31l-355 -391q-6 -4 -20 -4q-8 0 -16.5 9t-8.5 17z" />
<glyph unicode="&#xbc;" horiz-adv-x="1646" d="M66 1288q0 14 8 23q178 16 225 119q12 6 31 6q31 0 30 -29v-764h183q8 -8 8 -27q0 -33 -35 -32h-412q-8 16 -8 28q0 31 43 31h160v696q-41 -39 -100.5 -60.5t-106.5 -21.5q-26 0 -26 31zM522 35l518 1392q12 6 31 7q39 0 29 -31l-522 -1401q-12 -6 -39 -6q-22 0 -22 17 q0 9 5 22zM958 207q0 16 7 29l200 606q10 6 31 6q35 0 23 -31l-193 -579h375v337q16 8 33 9q27 0 26 -25v-321h123q6 -6 6 -27q0 -27 -22 -27h-107l2 -178q-12 -6 -35 -6q-27 0 -26 27v157h-436q-7 9 -7 23z" />
<glyph unicode="&#xbd;" horiz-adv-x="1722" d="M66 1288q0 14 8 23q178 16 225 119q12 6 31 6q31 0 30 -29v-764h183q8 -8 8 -27q0 -33 -35 -32h-412q-8 16 -8 28q0 31 43 31h160v696q-41 -39 -100.5 -60.5t-106.5 -21.5q-26 0 -26 31zM522 35l518 1392q12 6 31 7q39 0 29 -31l-522 -1401q-12 -6 -39 -6q-22 0 -22 17 q0 9 5 22zM1083 35q0 23 17 37l77 51l83 58q66 46 94 73l80 76q51 49 74.5 88t44 90t20.5 98q0 88 -61.5 136.5t-161.5 48.5q-80 0 -146.5 -35t-81.5 -80q-35 6 -35 35q0 41 74 89t185 48q135 0 210.5 -62.5t75.5 -173.5q0 -90 -50 -181t-131 -164.5t-144.5 -120 t-128.5 -85.5v-6l495 4q6 -14 6 -30q0 -29 -28 -29h-561q-7 17 -7 35z" />
<glyph unicode="&#xbe;" horiz-adv-x="1646" d="M47 748q0 37 37 36q8 -59 61.5 -104t163.5 -45q125 0 184.5 51t59.5 133q0 76 -55.5 120t-143.5 44h-41q-20 0 -20 27q0 10 6 28q117 0 173 46q54 44 54 117q0 79 -57 125t-160 46q-82 0 -140 -30.5t-69 -75.5q-35 4 -34 32q0 43 64.5 88.5t182.5 45.5q127 0 200 -62.5 t73 -159.5q0 -68 -40 -123t-104 -69v-2q72 -12 121 -63.5t49 -139.5q0 -104 -74.5 -168.5t-226.5 -64.5q-139 0 -201.5 55.5t-62.5 112.5zM522 35l518 1392q12 6 31 7q39 0 29 -31l-522 -1401q-12 -6 -39 -6q-22 0 -22 17q0 9 5 22zM958 207q0 16 7 29l200 606q10 6 31 6 q35 0 23 -31l-193 -579h375v337q16 8 33 9q27 0 26 -25v-321h123q6 -6 6 -27q0 -27 -22 -27h-107l2 -178q-12 -6 -35 -6q-27 0 -26 27v157h-436q-7 9 -7 23z" />
<glyph unicode="&#xbf;" horiz-adv-x="1001" d="M68 -20q0 143 67.5 242.5t158.5 142.5t200 51l-7 315q16 8 37 8q23 0 23 -34l6 -312q0 -25 -8 -33q-184 -4 -301 -98t-117 -282.5t108.5 -279.5t278.5 -91q139 0 235.5 56t106.5 136q29 0 40 -6t11 -28q0 -66 -103.5 -142t-291.5 -76q-190 0 -317 112t-127 319zM451 905 q0 57 59 58q57 0 57 -58q0 -59 -57 -59q-59 0 -59 59z" />
<glyph unicode="&#xc0;" d="M41 10l561 1411q18 12 41 13q31 0 43 -35l557 -1379q-6 -20 -29 -20q-27 0 -34 23l-152 372h-768l-151 -377q-8 -18 -35 -18q-23 0 -33 10zM283 455h721l-363 891zM440 1819q0 39 47 39q27 0 82.5 -39t122 -93.5t94.5 -72.5q-10 -35 -43 -35q-18 0 -71 39l-121 90 q-68 52 -111 72z" />
<glyph unicode="&#xc1;" d="M41 10l561 1411q18 12 41 13q31 0 43 -35l557 -1379q-6 -20 -29 -20q-27 0 -34 23l-152 372h-768l-151 -377q-8 -18 -35 -18q-23 0 -33 10zM283 455h721l-363 891zM483 1653q29 18 95.5 72.5t122 93.5t81.5 39q47 0 47 -39q-43 -20 -110 -72l-121 -90q-53 -39 -72 -39 q-33 0 -43 35z" />
<glyph unicode="&#xc2;" d="M41 10l561 1411q18 12 41 13q31 0 43 -35l557 -1379q-6 -20 -29 -20q-27 0 -34 23l-152 372h-768l-151 -377q-8 -18 -35 -18q-23 0 -33 10zM283 455h721l-363 891zM340 1653q29 18 94.5 72.5t119.5 93.5t85 39q27 0 80 -38t120.5 -92.5t102.5 -74.5q-10 -35 -43 -35 q-12 0 -27 8q-29 14 -110.5 77.5t-120.5 88.5q-39 -25 -121 -88.5t-110 -77.5q-14 -8 -27 -8q-33 0 -43 35z" />
<glyph unicode="&#xc3;" d="M41 10l561 1411q18 12 41 13q31 0 43 -35l557 -1379q-6 -20 -29 -20q-27 0 -34 23l-152 372h-768l-151 -377q-8 -18 -35 -18q-23 0 -33 10zM283 455h721l-363 891zM324 1699.5q0 22.5 47 53.5t102 31q51 0 169 -33t165 -33q82 0 131 49q20 -14 20 -38q0 -29 -35.5 -51.5 t-99.5 -22.5q-55 0 -182 31.5t-164 31.5q-39 0 -78 -20.5t-47 -36.5q-28 16 -28 38.5z" />
<glyph unicode="&#xc4;" d="M41 10l561 1411q18 12 41 13q31 0 43 -35l557 -1379q-6 -20 -29 -20q-27 0 -34 23l-152 372h-768l-151 -377q-8 -18 -35 -18q-23 0 -33 10zM283 455h721l-363 891zM365 1710q0 59 57 59q59 0 59 -59q0 -57 -59 -57q-57 0 -57 57zM801 1710q0 59 57 59q59 0 60 -59 q0 -57 -60 -57q-57 0 -57 57z" />
<glyph unicode="&#xc5;" d="M41 10l561 1411q18 12 41 13q31 0 43 -35l557 -1379q-6 -20 -29 -20q-27 0 -34 23l-152 372h-768l-151 -377q-8 -18 -35 -18q-23 0 -33 10zM283 455h721l-363 891zM469 1765q0 172 172 172q84 0 128 -45t44 -127q0 -172 -172 -172t-172 172zM528 1765.5 q0 -112.5 113 -112.5t113 112q0 51 -30 82t-83 31q-113 0 -113 -112.5z" />
<glyph unicode="&#xc6;" horiz-adv-x="2045" d="M41 10l580 1411q12 8 32.5 11.5t37 3.5t46 -1t39.5 -1h1139q8 -6 8 -31q0 -35 -49 -35h-864v-594h770q8 -6 8 -31q0 -35 -49 -34h-729v-643h905q8 -6 8 -31q0 -35 -49 -35h-897q-33 0 -33 35v360h-680l-155 -377q-8 -18 -35 -18q-23 0 -33 10zM289 455h655v913h-276z" />
<glyph unicode="&#xc7;" horiz-adv-x="1355" d="M164 719q0 358 155.5 546.5t430.5 188.5q172 0 290.5 -59.5t178.5 -155.5q14 -23 14 -43q0 -10 -13.5 -17.5t-27.5 -2.5q-76 115 -177.5 165t-264.5 50q-246 0 -384.5 -175.5t-138.5 -496.5q0 -676 529 -676q305 0 458 207q12 4 25.5 -2t13.5 -23q0 -25 -18 -47 q-156 -199 -479 -198q-281 0 -436.5 180t-155.5 559zM645 -307q0 29 39 37q4 -18 31.5 -35t62.5 -17q43 0 71 23t28 70q0 86 -121 94q-10 4 -11 35l3 131l63 -2l-6 -111q57 -4 94 -40t37 -109q0 -72 -44 -110t-112 -38q-66 0 -100.5 22.5t-34.5 49.5z" />
<glyph unicode="&#xc8;" horiz-adv-x="1347" d="M246 35v1390q10 8 30 9h941q8 -6 8 -31q0 -35 -49 -35h-865v-594h770q8 -6 9 -31q0 -35 -50 -34h-729v-643h906q8 -6 8 -31q0 -35 -49 -35h-897q-33 0 -33 35zM535 1819q0 39 47 39q27 0 82 -39t121.5 -93.5t95.5 -72.5q-10 -35 -43 -35q-18 0 -72 39l-121 90 q-67 52 -110 72z" />
<glyph unicode="&#xc9;" horiz-adv-x="1347" d="M246 35v1390q10 8 30 9h941q8 -6 8 -31q0 -35 -49 -35h-865v-594h770q8 -6 9 -31q0 -35 -50 -34h-729v-643h906q8 -6 8 -31q0 -35 -49 -35h-897q-33 0 -33 35zM537 1653q29 18 95 72.5t121.5 93.5t82.5 39q47 0 47 -39q-43 -20 -111 -72l-121 -90q-53 -39 -71 -39 q-33 0 -43 35z" />
<glyph unicode="&#xca;" horiz-adv-x="1347" d="M246 35v1390q10 8 30 9h941q8 -6 8 -31q0 -35 -49 -35h-865v-594h770q8 -6 9 -31q0 -35 -50 -34h-729v-643h906q8 -6 8 -31q0 -35 -49 -35h-897q-33 0 -33 35zM424 1653q29 18 94.5 72.5t119.5 93.5t85 39q27 0 80 -38t120.5 -92.5t102.5 -74.5q-10 -35 -43 -35 q-12 0 -27 8q-29 14 -110.5 77.5t-120.5 88.5q-39 -25 -121 -88.5t-110 -77.5q-14 -8 -27 -8q-33 0 -43 35z" />
<glyph unicode="&#xcb;" horiz-adv-x="1347" d="M246 35v1390q10 8 30 9h941q8 -6 8 -31q0 -35 -49 -35h-865v-594h770q8 -6 9 -31q0 -35 -50 -34h-729v-643h906q8 -6 8 -31q0 -35 -49 -35h-897q-33 0 -33 35zM465 1710q0 59 57 59q59 0 60 -59q0 -57 -60 -57q-57 0 -57 57zM901 1710q0 59 57 59q59 0 60 -59 q0 -57 -60 -57q-57 0 -57 57z" />
<glyph unicode="&#xcc;" horiz-adv-x="557" d="M106 1819q0 39 48 39q27 0 82 -39t121.5 -93.5t95.5 -72.5q-10 -35 -43 -35q-18 0 -72 39l-121 90q-68 52 -111 72zM246 35v1388q14 10 30 11q35 0 35 -37v-1385q-12 -12 -32 -12q-33 0 -33 35z" />
<glyph unicode="&#xcd;" horiz-adv-x="557" d="M106 1653q29 18 95.5 72.5t122 93.5t82.5 39q47 0 47 -39q-43 -20 -111 -72l-121 -90q-53 -39 -71 -39q-34 0 -44 35zM246 35v1388q14 10 30 11q35 0 35 -37v-1385q-12 -12 -32 -12q-33 0 -33 35z" />
<glyph unicode="&#xce;" horiz-adv-x="557" d="M-23 1653q29 18 94.5 72.5t120 93.5t84.5 39q27 0 80.5 -38t121 -92.5t102.5 -74.5q-10 -35 -43 -35q-12 0 -27 8q-29 14 -111 77.5t-120 88.5q-39 -25 -121 -88.5t-111 -77.5q-14 -8 -27 -8q-33 0 -43 35zM246 35v1388q14 10 30 11q35 0 35 -37v-1385q-12 -12 -32 -12 q-33 0 -33 35z" />
<glyph unicode="&#xcf;" horiz-adv-x="557" d="M2 1710q0 59 57 59q59 0 60 -59q0 -57 -60 -57q-57 0 -57 57zM246 35v1388q14 10 30 11q35 0 35 -37v-1385q-12 -12 -32 -12q-33 0 -33 35zM438 1710q0 59 58 59q59 0 59 -59q0 -57 -59 -57q-58 0 -58 57z" />
<glyph unicode="&#xd0;" horiz-adv-x="1452" d="M57 709q0 37 45 36h144v678q14 10 30 11h275q387 0 562 -177.5t175 -547.5q0 -383 -166 -546t-499 -163h-332q-18 0 -28.5 7t-14.5 24.5t-4 31t1 40t1 38.5v539h-180q-9 17 -9 29zM311 66h310q307 0 455.5 146t148.5 497q0 336 -155 498.5t-503 162.5h-256v-625h377 q8 -8 8 -30q0 -35 -47 -35h-338v-614z" />
<glyph unicode="&#xd1;" horiz-adv-x="1529" d="M246 33v1392q16 8 30 9q16 0 29 -15l918 -1300l-4 1304q14 10 30 11q35 0 35 -37v-1389q-10 -8 -33 -8q-18 0 -30 16l-914 1276l4 -1282q-14 -10 -35 -10q-30 0 -30 33zM446 1699.5q0 22.5 47.5 53.5t102.5 31q51 0 169 -33t165 -33q82 0 131 49q20 -14 20 -38 q0 -29 -35.5 -51.5t-99.5 -22.5q-55 0 -182 31.5t-164 31.5q-39 0 -78 -20.5t-47 -36.5q-29 16 -29 38.5z" />
<glyph unicode="&#xd2;" horiz-adv-x="1497" d="M164 719q0 358 158.5 546.5t439.5 188.5q268 0 419.5 -188.5t151.5 -546.5q0 -739 -573 -739q-281 0 -438.5 180t-157.5 559zM225 719q0 -676 537 -676q510 0 510 676q0 324 -135.5 498t-374.5 174q-258 0 -397.5 -174t-139.5 -498zM575 1819q0 39 48 39q27 0 82 -39 t121.5 -93.5t95.5 -72.5q-10 -35 -43 -35q-18 0 -72 39l-121 90q-68 52 -111 72z" />
<glyph unicode="&#xd3;" horiz-adv-x="1497" d="M164 719q0 358 158.5 546.5t439.5 188.5q268 0 419.5 -188.5t151.5 -546.5q0 -739 -573 -739q-281 0 -438.5 180t-157.5 559zM225 719q0 -676 537 -676q510 0 510 676q0 324 -135.5 498t-374.5 174q-258 0 -397.5 -174t-139.5 -498zM575 1653q29 18 95.5 72.5t122 93.5 t81.5 39q47 0 48 -39q-43 -20 -111 -72l-121 -90q-53 -39 -72 -39q-33 0 -43 35z" />
<glyph unicode="&#xd4;" horiz-adv-x="1497" d="M164 719q0 358 158.5 546.5t439.5 188.5q268 0 419.5 -188.5t151.5 -546.5q0 -739 -573 -739q-281 0 -438.5 180t-157.5 559zM225 719q0 -676 537 -676q510 0 510 676q0 324 -135.5 498t-374.5 174q-258 0 -397.5 -174t-139.5 -498zM446 1653q29 18 94.5 72.5t120 93.5 t84.5 39q27 0 80.5 -38t121 -92.5t102.5 -74.5q-10 -35 -43 -35q-12 0 -27 8q-29 14 -111 77.5t-120 88.5q-39 -25 -121 -88.5t-111 -77.5q-14 -8 -27 -8q-33 0 -43 35z" />
<glyph unicode="&#xd5;" horiz-adv-x="1497" d="M164 719q0 358 158.5 546.5t439.5 188.5q268 0 419.5 -188.5t151.5 -546.5q0 -739 -573 -739q-281 0 -438.5 180t-157.5 559zM225 719q0 -676 537 -676q510 0 510 676q0 324 -135.5 498t-374.5 174q-258 0 -397.5 -174t-139.5 -498zM430 1699.5q0 22.5 47 53.5t103 31 q51 0 168.5 -33t164.5 -33q82 0 131 49q20 -14 21 -38q0 -29 -36 -51.5t-99 -22.5q-55 0 -182 31.5t-164 31.5q-39 0 -78 -20.5t-47 -36.5q-29 16 -29 38.5z" />
<glyph unicode="&#xd6;" horiz-adv-x="1497" d="M164 719q0 358 158.5 546.5t439.5 188.5q268 0 419.5 -188.5t151.5 -546.5q0 -739 -573 -739q-281 0 -438.5 180t-157.5 559zM225 719q0 -676 537 -676q510 0 510 676q0 324 -135.5 498t-374.5 174q-258 0 -397.5 -174t-139.5 -498zM471 1710q0 59 57 59q59 0 60 -59 q0 -57 -60 -57q-57 0 -57 57zM907 1710q0 59 58 59q59 0 59 -59q0 -57 -59 -57q-58 0 -58 57z" />
<glyph unicode="&#xd7;" horiz-adv-x="972" d="M166 823q-2 10 16 29q7 7 18 7q24 0 64 -40l223 -223l275 274q1 0 2 1q10 0 27 -17q7 -7 7 -18q0 -24 -40 -64l-223 -223l274 -275l-2 -8q-2 -8 -10 -16q-11 -11 -25 -11q-19 0 -43 21l-242 242l-274 -275l-8 2q-8 2 -17 11q-11 11 -11 24q0 19 22 43l241 242z" />
<glyph unicode="&#xd8;" horiz-adv-x="1497" d="M164 719q0 358 158.5 546.5t439.5 188.5q115 0 211 -37l84 244q10 8 32.5 8t24.5 -20q0 -12 -2 -19l-82 -239q303 -158 303 -672q0 -739 -573 -739q-113 0 -201 26l-100 -299q-8 -4 -35 -4t-27 21q0 4 4 16l99 287q-336 145 -336 692zM225 719q0 -504 295 -631l432 1268 q-88 35 -190 35q-258 0 -397.5 -174t-139.5 -498zM580 66q86 -23 182 -23q510 0 510 676q0 459 -262 610z" />
<glyph unicode="&#xd9;" horiz-adv-x="1470" d="M236 518v905q14 10 30 11q35 0 35 -37v-862q0 -254 99.5 -373t334.5 -119q240 0 342.5 118t102.5 371v891q14 10 30 11q35 0 35 -37v-879q0 -268 -124 -403t-386 -135t-380.5 132t-118.5 406zM561 1819q0 39 47 39q27 0 82 -39t122 -93.5t95 -72.5q-10 -35 -43 -35 q-18 0 -71 39l-121 90q-68 52 -111 72z" />
<glyph unicode="&#xda;" horiz-adv-x="1470" d="M236 518v905q14 10 30 11q35 0 35 -37v-862q0 -254 99.5 -373t334.5 -119q240 0 342.5 118t102.5 371v891q14 10 30 11q35 0 35 -37v-879q0 -268 -124 -403t-386 -135t-380.5 132t-118.5 406zM561 1653q29 18 95.5 72.5t122 93.5t81.5 39q47 0 47 -39q-43 -20 -110 -72 l-121 -90q-53 -39 -72 -39q-33 0 -43 35z" />
<glyph unicode="&#xdb;" horiz-adv-x="1470" d="M236 518v905q14 10 30 11q35 0 35 -37v-862q0 -254 99.5 -373t334.5 -119q240 0 342.5 118t102.5 371v891q14 10 30 11q35 0 35 -37v-879q0 -268 -124 -403t-386 -135t-380.5 132t-118.5 406zM434 1653q29 18 94.5 72.5t119.5 93.5t85 39q27 0 80 -38t120.5 -92.5 t102.5 -74.5q-10 -35 -43 -35q-12 0 -26 8q-29 14 -111 77.5t-121 88.5q-39 -25 -121 -88.5t-110 -77.5q-14 -8 -27 -8q-33 0 -43 35z" />
<glyph unicode="&#xdc;" horiz-adv-x="1470" d="M236 518v905q14 10 30 11q35 0 35 -37v-862q0 -254 99.5 -373t334.5 -119q240 0 342.5 118t102.5 371v891q14 10 30 11q35 0 35 -37v-879q0 -268 -124 -403t-386 -135t-380.5 132t-118.5 406zM459 1710q0 59 57 59q59 0 59 -59q0 -57 -59 -57q-57 0 -57 57zM895 1710 q0 59 57 59q59 0 60 -59q0 -57 -60 -57q-57 0 -57 57z" />
<glyph unicode="&#xdd;" horiz-adv-x="1214" d="M102 1417q16 16 39 17q25 0 33 -23q172 -537 449 -901q137 186 275 478t161 439q12 6 31 7q23 0 22 -25q-4 -131 -165 -452.5t-296 -495.5v-451q-14 -10 -35 -10q-31 0 -30 35v426q-304 395 -484 956zM434 1653q29 18 95.5 72.5t122 93.5t81.5 39q47 0 47 -39 q-43 -20 -110 -72l-121 -90q-53 -39 -72 -39q-33 0 -43 35z" />
<glyph unicode="&#xde;" horiz-adv-x="1200" d="M225 33v1392q16 8 39 9q27 0 27 -23v-256h428q176 0 277.5 -106.5t101.5 -303.5q0 -219 -123 -319t-326 -100h-358v-316q-14 -10 -37 -10q-29 0 -29 33zM291 381h334q195 0 303 82t108 280q0 356 -331 357h-414v-719z" />
<glyph unicode="&#xdf;" horiz-adv-x="1255" d="M164 10v994q0 121 34.5 208.5t94 134t124 67t140.5 20.5q147 0 240.5 -70t93.5 -203q0 -141 -12 -192h-48q-131 0 -201.5 -52.5t-70.5 -144.5q0 -162 289 -229q274 -63 274 -297q0 -127 -83 -196.5t-226 -69.5q-121 0 -226.5 55t-105.5 96q0 27 23 35q37 -45 122 -85 t183 -40q125 0 188.5 59.5t63.5 145.5q0 96 -56.5 153.5t-179.5 87.5q-330 84 -329 285q0 113 85 182.5t246 71.5q6 37 7 123q0 111 -80 165t-197 54q-139 0 -234.5 -88t-95.5 -297v-958q0 -25 -26.5 -25t-36.5 10z" />
<glyph unicode="&#xe0;" horiz-adv-x="1007" d="M82 264q0 227 240 250l413 37v178q0 193 -243 193q-96 0 -186.5 -30t-123.5 -63q-25 2 -24 29q0 45 107.5 85t221.5 40q78 0 141.5 -17.5t116 -77t52.5 -157.5v-590q0 -45 14 -63.5t47 -18.5h57q10 -14 11 -30q0 -29 -84 -29q-106 0 -107 129v66q-186 -215 -395 -215 q-129 0 -193.5 78.5t-64.5 205.5zM143 260q0 -96 50.5 -158.5t146.5 -62.5q211 0 395 235v213l-413 -36q-179 -19 -179 -191zM268 1348q0 39 47 38q27 0 82.5 -38.5t122 -93t94.5 -72.5q-10 -35 -43 -35q-18 0 -71 39l-121 90q-68 52 -111 72z" />
<glyph unicode="&#xe1;" horiz-adv-x="1007" d="M82 264q0 227 240 250l413 37v178q0 193 -243 193q-96 0 -186.5 -30t-123.5 -63q-25 2 -24 29q0 45 107.5 85t221.5 40q78 0 141.5 -17.5t116 -77t52.5 -157.5v-590q0 -45 14 -63.5t47 -18.5h57q10 -14 11 -30q0 -29 -84 -29q-106 0 -107 129v66q-186 -215 -395 -215 q-129 0 -193.5 78.5t-64.5 205.5zM143 260q0 -96 50.5 -158.5t146.5 -62.5q211 0 395 235v213l-413 -36q-179 -19 -179 -191zM367 1182q29 18 95 72.5t121.5 93t82.5 38.5q47 0 47 -38q-43 -20 -111 -72l-121 -90q-53 -39 -71 -39q-33 0 -43 35z" />
<glyph unicode="&#xe2;" horiz-adv-x="1007" d="M82 264q0 227 240 250l413 37v178q0 193 -243 193q-96 0 -186.5 -30t-123.5 -63q-25 2 -24 29q0 45 107.5 85t221.5 40q78 0 141.5 -17.5t116 -77t52.5 -157.5v-590q0 -45 14 -63.5t47 -18.5h57q10 -14 11 -30q0 -29 -84 -29q-106 0 -107 129v66q-186 -215 -395 -215 q-129 0 -193.5 78.5t-64.5 205.5zM143 260q0 -96 50.5 -158.5t146.5 -62.5q211 0 395 235v213l-413 -36q-179 -19 -179 -191zM180 1182q29 18 94.5 72.5t120 93t84.5 38.5q27 0 80 -37.5t121 -92t102 -74.5q-10 -35 -43 -35q-12 0 -26 8q-29 14 -111 77.5t-121 88.5 q-39 -25 -120.5 -88.5t-110.5 -77.5q-14 -8 -27 -8q-33 0 -43 35z" />
<glyph unicode="&#xe3;" horiz-adv-x="1007" d="M82 264q0 227 240 250l413 37v178q0 193 -243 193q-96 0 -186.5 -30t-123.5 -63q-25 2 -24 29q0 45 107.5 85t221.5 40q78 0 141.5 -17.5t116 -77t52.5 -157.5v-590q0 -45 14 -63.5t47 -18.5h57q10 -14 11 -30q0 -29 -84 -29q-106 0 -107 129v66q-186 -215 -395 -215 q-129 0 -193.5 78.5t-64.5 205.5zM143 260q0 -96 50.5 -158.5t146.5 -62.5q211 0 395 235v213l-413 -36q-179 -19 -179 -191zM164 1228.5q0 22.5 47 53.5t102 31q51 0 169 -33t165 -33q82 0 131 49q20 -14 21 -39q0 -29 -36 -51t-99 -22q-55 0 -182.5 31.5t-164.5 31.5 q-39 0 -77.5 -20.5t-46.5 -36.5q-29 16 -29 38.5z" />
<glyph unicode="&#xe4;" horiz-adv-x="1007" d="M82 264q0 227 240 250l413 37v178q0 193 -243 193q-96 0 -186.5 -30t-123.5 -63q-25 2 -24 29q0 45 107.5 85t221.5 40q78 0 141.5 -17.5t116 -77t52.5 -157.5v-590q0 -45 14 -63.5t47 -18.5h57q10 -14 11 -30q0 -29 -84 -29q-106 0 -107 129v66q-186 -215 -395 -215 q-129 0 -193.5 78.5t-64.5 205.5zM143 260q0 -96 50.5 -158.5t146.5 -62.5q211 0 395 235v213l-413 -36q-179 -19 -179 -191zM209 1239q0 59 57 59q59 0 60 -59q0 -57 -60 -57q-57 0 -57 57zM645 1239q0 59 57 59q59 0 60 -59q0 -57 -60 -57q-57 0 -57 57z" />
<glyph unicode="&#xe5;" horiz-adv-x="1007" d="M82 264q0 227 240 250l413 37v178q0 193 -243 193q-96 0 -186.5 -30t-123.5 -63q-25 2 -24 29q0 45 107.5 85t221.5 40q78 0 141.5 -17.5t116 -77t52.5 -157.5v-590q0 -45 14 -63.5t47 -18.5h57q10 -14 11 -30q0 -29 -84 -29q-106 0 -107 129v66q-186 -215 -395 -215 q-129 0 -193.5 78.5t-64.5 205.5zM143 260q0 -96 50.5 -158.5t146.5 -62.5q211 0 395 235v213l-413 -36q-179 -19 -179 -191zM307 1294q0 172 172 172q84 0 128 -45t44 -127q0 -172 -172 -172t-172 172zM367 1294.5q0 -112.5 112.5 -112.5t112.5 112q0 51 -30 82t-83 31 q-112 0 -112 -112.5z" />
<glyph unicode="&#xe6;" horiz-adv-x="1632" d="M82 264q0 227 240 250q152 8 413 37q0 164 -22.5 241.5t-70.5 103.5t-150 26q-96 0 -186.5 -30t-123.5 -63q-25 2 -24 29q0 45 107.5 85t221.5 40q119 0 209 -51t99 -176q57 113 153 170t209 57q174 0 263 -114.5t89 -288.5q0 -41 -10 -68h-700q0 -387 260 -459 q47 -12 98 -12q104 0 189.5 35t126.5 71q27 -8 26 -32q0 -16 -31.5 -46t-115.5 -59.5t-197 -29.5q-127 0 -225.5 64.5t-149.5 182.5q-90 -106 -210.5 -176.5t-229.5 -70.5q-129 0 -193.5 78.5t-64.5 205.5zM143 260q0 -94 50.5 -157.5t146.5 -63.5q104 0 220 68.5t200 175.5 q-25 82 -25 184v20l-413 -36q-179 -19 -179 -191zM805 573h641q0 158 -73 255.5t-220 97.5q-133 0 -228 -91.5t-120 -261.5z" />
<glyph unicode="&#xe7;" horiz-adv-x="1003" d="M160 485q0 254 120.5 376t297.5 122q80 0 138 -11t81.5 -22.5t62.5 -36.5q27 -14 31 -41q4 -16 -21 -32q-74 47 -127 63.5t-165 16.5q-156 0 -254.5 -104.5t-98.5 -330.5q0 -207 101.5 -325.5t271.5 -118.5q94 0 175 28.5t112 59.5q20 -12 20 -29q0 -31 -49 -59 q-106 -61 -256 -61q-201 0 -320.5 133.5t-119.5 371.5zM426 -307q0 29 39 37q4 -18 31.5 -35t62.5 -17q43 0 70.5 23t27.5 70q0 86 -120 94q-10 4 -11 35l2 131l64 -2l-6 -111q57 -4 94 -40t37 -109q0 -72 -44 -110t-112 -38q-66 0 -100.5 22.5t-34.5 49.5z" />
<glyph unicode="&#xe8;" horiz-adv-x="1040" d="M143 467q0 250 123 383t299 133q174 0 263.5 -114.5t89.5 -288.5q0 -41 -11 -68h-700v-47q0 -197 99.5 -310.5t258.5 -113.5q104 0 189.5 35t126.5 71q27 -8 26 -32q0 -23 -16 -35q-121 -100 -328 -100q-186 0 -303 132t-117 355zM213 573h641q0 158 -72.5 255.5 t-220.5 97.5q-133 0 -228 -91.5t-120 -261.5zM354 1348q0 38 47 38q27 0 82.5 -38.5t122 -93t94.5 -72.5q-10 -35 -43 -35q-18 0 -71 39l-121 90q-68 52 -111 72z" />
<glyph unicode="&#xe9;" horiz-adv-x="1040" d="M143 467q0 250 123 383t299 133q174 0 263.5 -114.5t89.5 -288.5q0 -41 -11 -68h-700v-47q0 -197 99.5 -310.5t258.5 -113.5q104 0 189.5 35t126.5 71q27 -8 26 -32q0 -23 -16 -35q-121 -100 -328 -100q-186 0 -303 132t-117 355zM213 573h641q0 158 -72.5 255.5 t-220.5 97.5q-133 0 -228 -91.5t-120 -261.5zM453 1182q29 18 95 72.5t122 93.5q55 38 82 38q47 0 47 -38q-43 -20 -111 -72l-121 -90q-53 -39 -71 -39q-33 0 -43 35z" />
<glyph unicode="&#xea;" horiz-adv-x="1040" d="M143 467q0 250 123 383t299 133q174 0 263.5 -114.5t89.5 -288.5q0 -41 -11 -68h-700v-47q0 -197 99.5 -310.5t258.5 -113.5q104 0 189.5 35t126.5 71q27 -8 26 -32q0 -23 -16 -35q-121 -100 -328 -100q-186 0 -303 132t-117 355zM213 573h641q0 158 -72.5 255.5 t-220.5 97.5q-133 0 -228 -91.5t-120 -261.5zM266 1182q29 18 94.5 72.5t119.5 93.5q55 38 85 38q27 0 80 -37.5t121 -92t102 -74.5q-10 -35 -43 -35q-12 0 -26 8q-29 14 -111 77.5t-121 88.5q-39 -25 -120.5 -88.5t-110.5 -77.5q-14 -8 -27 -8q-33 0 -43 35z" />
<glyph unicode="&#xeb;" horiz-adv-x="1040" d="M143 467q0 250 123 383t299 133q174 0 263.5 -114.5t89.5 -288.5q0 -41 -11 -68h-700v-47q0 -197 99.5 -310.5t258.5 -113.5q104 0 189.5 35t126.5 71q27 -8 26 -32q0 -23 -16 -35q-121 -100 -328 -100q-186 0 -303 132t-117 355zM213 573h641q0 158 -72.5 255.5 t-220.5 97.5q-133 0 -228 -91.5t-120 -261.5zM295 1239q0 59 57 59q59 0 60 -59q0 -57 -60 -57q-57 0 -57 57zM731 1239q0 59 57 59q59 0 60 -59q0 -57 -60 -57q-57 0 -57 57z" />
<glyph unicode="&#xec;" horiz-adv-x="585" d="M43 1348q0 39 47 38q27 0 82 -38.5t121.5 -93t95.5 -72.5q-10 -35 -43 -35q-18 0 -72 39l-120 90q-68 52 -111 72zM143 924q0 39 86 39q55 0 78 -25t23 -84v-739q0 -47 49 -47h55q8 -8 8 -27q0 -41 -86 -41q-41 0 -66.5 20.5t-25.5 59.5v758q0 53 -53 53h-57 q-11 15 -11 33z" />
<glyph unicode="&#xed;" horiz-adv-x="585" d="M141 1182q29 18 95.5 72.5t122 93t81.5 38.5q47 0 47 -38q-43 -20 -110 -72l-121 -90q-53 -39 -72 -39q-33 0 -43 35zM143 924q0 39 86 39q55 0 78 -25t23 -84v-739q0 -47 49 -47h55q8 -8 8 -27q0 -41 -86 -41q-41 0 -66.5 20.5t-25.5 59.5v758q0 53 -53 53h-57 q-11 15 -11 33z" />
<glyph unicode="&#xee;" horiz-adv-x="585" d="M-45 1182q29 18 94.5 72.5t119.5 93t85 38.5q27 0 80 -37.5t120.5 -92t102.5 -74.5q-10 -35 -43 -35q-12 0 -27 8q-29 14 -110.5 77.5t-120.5 88.5q-39 -25 -121 -88.5t-110 -77.5q-14 -8 -27 -8q-33 0 -43 35zM143 924q0 39 86 39q55 0 78 -25t23 -84v-739q0 -47 49 -47 h55q8 -8 8 -27q0 -41 -86 -41q-41 0 -66.5 20.5t-25.5 59.5v758q0 53 -53 53h-57q-11 15 -11 33z" />
<glyph unicode="&#xef;" horiz-adv-x="585" d="M-16 1239q0 59 57 59q59 0 59 -59q0 -57 -59 -57q-57 0 -57 57zM143 924q0 39 86 39q55 0 78 -25t23 -84v-739q0 -47 49 -47h55q8 -8 8 -27q0 -41 -86 -41q-41 0 -66.5 20.5t-25.5 59.5v758q0 53 -53 53h-57q-11 15 -11 33zM420 1239q0 59 57 59q59 0 60 -59 q0 -57 -60 -57q-57 0 -57 57z" />
<glyph unicode="&#xf0;" horiz-adv-x="1175" d="M143 512q0 250 116 380t306 130q201 0 326 -104q-55 156 -152 282l-217 -80q-12 12 -16 25q-6 16 3 29.5t54 29.5l133 49q-72 82 -147 142q0 20 10 35q12 16 28 16q14 0 29 -12q86 -70 152 -156l184 68q6 -4 15 -25q2 -5 1 -10q0 -28 -59 -49l-100 -37q203 -287 203 -656 q0 -311 -106.5 -442t-319.5 -131q-443 0 -443 516zM205 512q0 -240 97 -345.5t284 -105.5q184 0 274 115t90 393q0 119 -24 224q-131 164 -359 163q-166 0 -264 -114.5t-98 -329.5z" />
<glyph unicode="&#xf1;" horiz-adv-x="1191" d="M102 928q0 35 93 35q59 0 83.5 -25t24.5 -84v-131q164 260 393 260q135 0 210 -90t75 -256v-518q0 -55 37 -56h86q6 -12 6 -28q0 -35 -98 -35q-96 0 -97 106v523q0 145 -59 219t-164 74q-215 0 -389 -308v-604q-16 -10 -33 -10q-33 0 -32 33v805q0 55 -48 55h-81 q-7 17 -7 35zM279 1226.5q0 22.5 47 53.5t102 31q51 0 169 -33t165 -33q82 0 131 49q20 -14 20 -39q0 -27 -35.5 -50t-99.5 -23q-55 0 -182 31.5t-164 31.5q-39 0 -78 -20.5t-47 -36.5q-28 16 -28 38.5z" />
<glyph unicode="&#xf2;" horiz-adv-x="1124" d="M143 481q0 244 117 373t315 129q193 0 299.5 -127t106.5 -375q0 -502 -422 -501q-416 -1 -416 501zM207 481q0 -233 90 -335.5t262 -102.5q359 0 359 438q0 215 -89.5 327t-253.5 112q-170 0 -269 -114t-99 -325zM365 1346q0 39 47 38q27 0 82 -38.5t121.5 -93 t95.5 -72.5q-10 -35 -43 -35q-18 0 -72 39l-121 90q-67 52 -110 72z" />
<glyph unicode="&#xf3;" horiz-adv-x="1124" d="M143 481q0 244 117 373t315 129q193 0 299.5 -127t106.5 -375q0 -502 -422 -501q-416 -1 -416 501zM207 481q0 -233 90 -335.5t262 -102.5q359 0 359 438q0 215 -89.5 327t-253.5 112q-170 0 -269 -114t-99 -325zM463 1180q29 18 95.5 72.5t121.5 93t82 38.5q47 0 47 -38 q-43 -20 -111 -72l-120 -90q-53 -39 -72 -39q-33 0 -43 35z" />
<glyph unicode="&#xf4;" horiz-adv-x="1124" d="M143 481q0 244 117 373t315 129q193 0 299.5 -127t106.5 -375q0 -502 -422 -501q-416 -1 -416 501zM207 481q0 -233 90 -335.5t262 -102.5q359 0 359 438q0 215 -89.5 327t-253.5 112q-170 0 -269 -114t-99 -325zM276 1180q29 18 94.5 72.5t120 93t84.5 38.5 q27 0 80.5 -37.5t121 -92t102.5 -74.5q-10 -35 -43 -35q-12 0 -27 8q-29 14 -111 77.5t-120 88.5q-39 -25 -121 -88.5t-111 -77.5q-14 -8 -27 -8q-33 0 -43 35z" />
<glyph unicode="&#xf5;" horiz-adv-x="1124" d="M143 481q0 244 117 373t315 129q193 0 299.5 -127t106.5 -375q0 -502 -422 -501q-416 -1 -416 501zM207 481q0 -233 90 -335.5t262 -102.5q359 0 359 438q0 215 -89.5 327t-253.5 112q-170 0 -269 -114t-99 -325zM260 1226.5q0 22.5 47 53.5t103 31q51 0 168.5 -33 t164.5 -33q82 0 131 49q20 -14 21 -39q0 -27 -36 -50t-99 -23q-55 0 -182 31.5t-164 31.5q-39 0 -78 -20.5t-47 -36.5q-29 16 -29 38.5z" />
<glyph unicode="&#xf6;" horiz-adv-x="1124" d="M143 481q0 244 117 373t315 129q193 0 299.5 -127t106.5 -375q0 -502 -422 -501q-416 -1 -416 501zM207 481q0 -233 90 -335.5t262 -102.5q359 0 359 438q0 215 -89.5 327t-253.5 112q-170 0 -269 -114t-99 -325zM305 1237q0 59 57 59q59 0 60 -59q0 -57 -60 -57 q-57 0 -57 57zM741 1237q0 59 58 59q59 0 59 -59q0 -57 -59 -57q-58 0 -58 57z" />
<glyph unicode="&#xf7;" horiz-adv-x="1105" d="M123 518q0 33 33 33h821q6 -10 6 -31q0 -35 -33 -35h-821q-6 25 -6 33zM498 111q0 59 57 59q59 0 59 -59q0 -57 -59 -58q-57 1 -57 58zM498 918q0 59 57 59q59 0 59 -59q0 -57 -59 -58q-57 1 -57 58z" />
<glyph unicode="&#xf8;" horiz-adv-x="1124" d="M143 481q0 244 117 373t315 129q51 0 103 -10l86 289q12 6 31 6q23 0 24 -21q0 -12 -2 -18l-80 -275q244 -92 244 -473q0 -502 -422 -501q-51 0 -106 10l-62 -215q-10 -8 -35 -8q-16 0 -22 10q-4 8 2 28l57 199q-250 86 -250 477zM207 481q0 -340 205 -415l247 843 q-45 10 -84 11q-170 0 -269 -114t-99 -325zM471 49q43 -6 88 -6q358 0 359 438q0 326 -199 412z" />
<glyph unicode="&#xf9;" horiz-adv-x="1185" d="M82 928q0 35 102 35q57 0 81 -26t24 -85v-535q0 -150 50 -213t150 -63q246 0 408 319v594q14 8 35 9q29 0 29 -29v-815q0 -55 40 -56h78q4 -16 4 -22q0 -41 -98 -41q-47 0 -67.5 23.5t-20.5 82.5v140q-168 -266 -408 -266q-139 0 -203.5 75.5t-64.5 257.5v527 q0 55 -47 55h-88q-4 17 -4 33zM365 1346q0 39 47 38q27 0 82 -38.5t121.5 -93t95.5 -72.5q-10 -35 -43 -35q-18 0 -72 39l-121 90q-67 52 -110 72z" />
<glyph unicode="&#xfa;" horiz-adv-x="1185" d="M82 928q0 35 102 35q57 0 81 -26t24 -85v-535q0 -150 50 -213t150 -63q246 0 408 319v594q14 8 35 9q29 0 29 -29v-815q0 -55 40 -56h78q4 -16 4 -22q0 -41 -98 -41q-47 0 -67.5 23.5t-20.5 82.5v140q-168 -266 -408 -266q-139 0 -203.5 75.5t-64.5 257.5v527 q0 55 -47 55h-88q-4 17 -4 33zM463 1180q29 18 95.5 72.5t121.5 93t82 38.5q47 0 47 -38q-43 -20 -111 -72l-120 -90q-53 -39 -72 -39q-33 0 -43 35z" />
<glyph unicode="&#xfb;" horiz-adv-x="1185" d="M82 928q0 35 102 35q57 0 81 -26t24 -85v-535q0 -150 50 -213t150 -63q246 0 408 319v594q14 8 35 9q29 0 29 -29v-815q0 -55 40 -56h78q4 -16 4 -22q0 -41 -98 -41q-47 0 -67.5 23.5t-20.5 82.5v140q-168 -266 -408 -266q-139 0 -203.5 75.5t-64.5 257.5v527 q0 55 -47 55h-88q-4 17 -4 33zM276 1180q29 18 94.5 72.5t120 93t84.5 38.5q27 0 80.5 -37.5t121 -92t102.5 -74.5q-10 -35 -43 -35q-12 0 -27 8q-29 14 -111 77.5t-120 88.5q-39 -25 -121 -88.5t-111 -77.5q-14 -8 -27 -8q-33 0 -43 35z" />
<glyph unicode="&#xfc;" horiz-adv-x="1185" d="M82 928q0 35 102 35q57 0 81 -26t24 -85v-535q0 -150 50 -213t150 -63q246 0 408 319v594q14 8 35 9q29 0 29 -29v-815q0 -55 40 -56h78q4 -16 4 -22q0 -41 -98 -41q-47 0 -67.5 23.5t-20.5 82.5v140q-168 -266 -408 -266q-139 0 -203.5 75.5t-64.5 257.5v527 q0 55 -47 55h-88q-4 17 -4 33zM305 1237q0 59 57 59q59 0 60 -59q0 -57 -60 -57q-57 0 -57 57zM741 1237q0 59 58 59q59 0 59 -59q0 -57 -59 -57q-58 0 -58 57z" />
<glyph unicode="&#xfd;" horiz-adv-x="1079" d="M20 930q0 33 80 33q45 0 66.5 -16.5t38.5 -55.5l315 -787q16 -43 47 -43h8q123 240 220.5 474.5t97.5 318.5q0 53 -49 53h-82q-4 12 -4 23q0 33 78 33q121 0 120 -103q0 -141 -187 -544.5t-298 -559.5q-70 -96 -135.5 -131t-149.5 -35q-121 0 -120 45q0 20 8 29h123 q41 0 69.5 6t72.5 37t85 90q55 80 119 203q-47 0 -72 59l-321 813q-14 35 -46 35h-79q-5 13 -5 23zM401 1182q29 18 95.5 72.5t122 93t81.5 38.5q47 0 48 -38q-43 -20 -111 -72l-121 -90q-53 -39 -72 -39q-33 0 -43 35z" />
<glyph unicode="&#xfe;" horiz-adv-x="1144" d="M215 -401v1828q14 6 35 7q29 0 29 -23v-625q66 88 157.5 142.5t194.5 54.5q371 0 370 -485q0 -260 -114.5 -389t-282.5 -129q-188 0 -325 155v-559q-16 -10 -31 -10q-33 0 -33 33zM279 229q139 -188 323 -188q147 0 242.5 110.5t95.5 342.5q0 428 -315 428 q-209 0 -346 -230v-463z" />
<glyph unicode="&#xff;" horiz-adv-x="1079" d="M20 930q0 33 80 33q45 0 66.5 -16.5t38.5 -55.5l315 -787q16 -43 47 -43h8q123 240 220.5 474.5t97.5 318.5q0 53 -49 53h-82q-4 12 -4 23q0 33 78 33q121 0 120 -103q0 -141 -187 -544.5t-298 -559.5q-70 -96 -135.5 -131t-149.5 -35q-121 0 -120 45q0 20 8 29h123 q41 0 69.5 6t72.5 37t85 90q55 80 119 203q-47 0 -72 59l-321 813q-14 35 -46 35h-79q-5 13 -5 23zM244 1239q0 59 57 59q59 0 59 -59q0 -57 -59 -57q-57 0 -57 57zM680 1239q0 59 57 59q59 0 60 -59q0 -57 -60 -57q-57 0 -57 57z" />
<glyph unicode="&#x152;" horiz-adv-x="2195" d="M164 719q0 360 161.5 547.5t458.5 187.5q166 0 310 -29q10 8 30 9h940q8 -6 9 -31q0 -35 -50 -35h-864v-594h770q8 -6 8 -31q0 -35 -49 -34h-729v-643h905q8 -6 9 -31q0 -35 -50 -35h-888q-25 0 -31 6q-143 -27 -322 -26q-618 0 -618 739zM225 719q0 -354 142.5 -515 t414.5 -161q158 0 312 29v1278q-125 41 -310 41q-272 0 -415.5 -173t-143.5 -499z" />
<glyph unicode="&#x153;" horiz-adv-x="1804" d="M143 481q0 244 117 373t315 129q295 0 379 -285q49 139 153.5 212t231.5 73q174 0 263.5 -114.5t89.5 -288.5q0 -41 -11 -68h-700q0 -223 93 -347t265 -124q104 0 189.5 35t126.5 71q27 -8 26 -32q0 -16 -31.5 -46t-115.5 -59.5t-197 -29.5q-135 0 -237.5 71.5 t-147.5 202.5q-82 -274 -393 -274q-416 -1 -416 501zM207 481q0 -233 90 -335.5t262 -102.5q349 0 359 414q0 463 -343 463q-170 0 -269 -114t-99 -325zM987 573h641q0 158 -69.5 253.5t-217.5 95.5q-133 0 -231 -89.5t-123 -259.5z" />
<glyph unicode="&#x178;" horiz-adv-x="1214" d="M102 1417q16 16 39 17q25 0 33 -23q172 -537 449 -901q137 186 275 478t161 439q12 6 31 7q23 0 22 -25q-4 -131 -165 -452.5t-296 -495.5v-451q-14 -10 -35 -10q-31 0 -30 35v426q-304 395 -484 956zM330 1710q0 59 57 59q59 0 59 -59q0 -57 -59 -57q-57 0 -57 57z M766 1710q0 59 57 59q59 0 60 -59q0 -57 -60 -57q-57 0 -57 57z" />
<glyph unicode="&#x2c6;" horiz-adv-x="993" d="M180 1182q29 18 94.5 72.5t120 93t84.5 38.5q27 0 80 -37.5t121 -92t102 -74.5q-10 -35 -43 -35q-12 0 -26 8q-29 14 -111 77.5t-121 88.5q-39 -25 -120.5 -88.5t-110.5 -77.5q-14 -8 -27 -8q-33 0 -43 35z" />
<glyph unicode="&#x2dc;" horiz-adv-x="1097" d="M111 1228.5q0 22.5 47 53.5t102 31q51 0 169 -33t165 -33q82 0 131 49q20 -14 20 -39q0 -29 -35.5 -51t-99.5 -22q-55 0 -182 31.5t-164 31.5q-39 0 -78 -20.5t-47 -36.5q-28 16 -28 38.5z" />
<glyph unicode="&#x2013;" horiz-adv-x="1105" d="M123 549q0 33 33 33h821q6 -8 6 -31q0 -35 -33 -35h-821q-6 25 -6 33z" />
<glyph unicode="&#x2014;" horiz-adv-x="1429" d="M123 547q0 35 43 35h1134q6 -6 7 -31q0 -35 -31 -35h-1147q-6 25 -6 31z" />
<glyph unicode="&#x2018;" horiz-adv-x="286" d="M82 1253q0 74 20.5 127.5t49.5 53.5q25 0 32 -19q-43 -57 -43 -141q25 0 44.5 -15.5t19.5 -41.5q0 -59 -60 -60q-63 0 -63 96z" />
<glyph unicode="&#x2019;" horiz-adv-x="286" d="M82 1374q0 59 59 60q63 0 64 -97q0 -74 -20.5 -127t-49.5 -53q-25 0 -33 19q43 57 43 141q-25 0 -44 15t-19 42z" />
<glyph unicode="&#x201a;" horiz-adv-x="286" d="M82 57q0 59 59 60q63 0 64 -97q0 -74 -20.5 -127t-49.5 -53q-25 0 -33 19q43 57 43 141q-25 0 -44 15t-19 42z" />
<glyph unicode="&#x201c;" horiz-adv-x="462" d="M82 1253q0 74 20.5 127.5t49.5 53.5q25 0 32 -19q-43 -57 -43 -141q25 0 44.5 -15.5t19.5 -41.5q0 -59 -60 -60q-63 0 -63 96zM258 1253q0 74 20.5 127.5t49.5 53.5q25 0 32 -19q-43 -57 -43 -141q25 0 44.5 -15.5t19.5 -41.5q0 -59 -59 -60q-64 0 -64 96z" />
<glyph unicode="&#x201d;" horiz-adv-x="462" d="M82 1374q0 59 59 60q63 0 64 -97q0 -74 -20.5 -127t-49.5 -53q-25 0 -33 19q43 57 43 141q-25 0 -44 15t-19 42zM258 1374q0 59 59 60q63 0 64 -97q0 -74 -20.5 -127t-49.5 -53q-25 0 -32 19q43 57 43 141q-25 0 -44.5 15t-19.5 42z" />
<glyph unicode="&#x201e;" horiz-adv-x="462" d="M82 57q0 59 59 60q63 0 64 -97q0 -74 -20.5 -127t-49.5 -53q-25 0 -33 19q43 57 43 141q-25 0 -44 15t-19 42zM258 57q0 59 59 60q63 0 64 -97q0 -74 -20.5 -127t-49.5 -53q-25 0 -32 19q43 57 43 141q-25 0 -44.5 15t-19.5 42z" />
<glyph unicode="&#x2022;" horiz-adv-x="479" d="M123 532q0 119 115 119q119 0 118 -119q0 -115 -118 -114q-115 -1 -115 114z" />
<glyph unicode="&#x2026;" horiz-adv-x="841" d="M82 57q0 59 57 60q59 0 60 -60q0 -57 -60 -57q-57 0 -57 57zM362 57q0 59 58 60q59 0 59 -60q0 -57 -59 -57q-58 0 -58 57zM643 57q0 59 57 60q59 0 60 -60q0 -57 -60 -57q-57 0 -57 57z" />
<glyph unicode="&#x2039;" horiz-adv-x="616" d="M102 494q0 18 13 30l354 391q6 4 20 5q8 0 16.5 -9.5t8.5 -17.5q0 -14 -14 -29l-330 -366l338 -375q4 -12 4 -20.5t-7 -15.5t-16 -7q-14 0 -28 14l-350 375q-9 11 -9 25z" />
<glyph unicode="&#x203a;" horiz-adv-x="616" d="M102 106q0 14 15 29l329 367l-337 375q-4 12 -4.5 20t7 15.5t15.5 7.5q14 0 29 -15l350 -375q8 -10 8 -24q0 -18 -12 -31l-355 -391q-6 -4 -20 -4q-8 0 -16.5 9t-8.5 17z" />
<glyph unicode="&#x20ac;" horiz-adv-x="1372" d="M57 584q0 39 56 39h123q-2 31 -3 96q0 35 5 104h-172l-5 8q-4 6 -4 19q0 39 56 39h131q35 274 187.5 414.5t402.5 140.5q252 0 383 -92q30 -20 30 -38q0 -8 -8 -16q-14 -14 -33 -14q-113 96 -372 96q-219 0 -354.5 -125t-170.5 -366h652q8 -6 8 -31q0 -35 -82 -35h-586 q-4 -35 -4 -104q0 -66 2 -96h614q8 -6 9 -31q0 -35 -82 -35h-535q55 -498 520 -498q141 0 257 51.5t153 116.5q8 4 18 4q6 0 19 -6q11 -9 11 -20q0 -13 -13 -29q-150 -180 -445 -180q-520 0 -583 561h-176l-5 8q-4 5 -4 19z" />
<glyph unicode="&#x2122;" horiz-adv-x="1462" d="M8 1407q0 12 4 18.5t16.5 9.5t21.5 3h32h16h520q8 -12 9 -29q0 -35 -33 -35h-244v-647q-12 -6 -37 -6q-8 0 -13 3t-8 8t-5 11.5t-2 15.5v15v18v17v565h-269l-6 15q-2 6 -2 18zM684 727l41 582q0 8 1 31.5t2 36t6 28.5t15.5 24.5t26.5 8.5q20 0 33 -6l262 -584l197 475 q2 8 10 28.5t13 32t13.5 25.5t18.5 21.5t23 7.5q20 0 40 -11l76 -698q-10 -8 -32 -8q-31 0 -33 24l-58 582l-225 -530q-14 -35 -45 -35t-43 35l-240 528l-38 -580q-2 -25 -31 -24q-25 0 -33 6z" />
<glyph unicode="&#xe000;" horiz-adv-x="965" d="M0 965h965v-965h-965v965z" />
<glyph unicode="&#xfb01;" horiz-adv-x="1187" d="M123 928q0 35 47 35h100v239q0 129 55.5 180.5t161.5 51.5q76 0 117 -6.5t50.5 -13.5t9.5 -21q0 -16 -9 -25h-157q-86 0 -124 -37t-38 -137v-231h500q55 0 75.5 -24t20.5 -85v-739q0 -47 49 -47h55q8 -8 8 -27q0 -41 -86 -41q-88 0 -88 80v766q0 53 -53 53h-481v-874 q0 -25 -35 -25q-20 0 -31 10v889h-141q-6 11 -6 29zM831 1255q0 59 58 60q59 0 59 -60q0 -57 -59 -57q-58 0 -58 57z" />
<glyph unicode="&#xfb02;" horiz-adv-x="1251" d="M123 928q0 35 47 35h100v239q0 129 55.5 180.5t161.5 51.5q76 0 117 -6.5t50.5 -13.5t9.5 -21q0 -16 -9 -25h-157q-86 0 -124 -37t-38 -137v-231h278q4 -12 4 -31q0 -33 -38 -33h-244v-874q0 -25 -35 -25q-20 0 -31 10v889h-141q-6 11 -6 29zM836 231v1194q14 8 30 9 q35 0 35 -29v-1153q0 -111 35 -148.5t131 -37.5h141q2 -6 2 -27q0 -39 -143 -39q-123 0 -177 50t-54 181z" />
<glyph unicode="&#xfb03;" horiz-adv-x="1990" d="M123 928q0 35 47 35h100v239q0 129 55.5 180.5t161.5 51.5q76 0 117 -6.5t50.5 -13.5t9.5 -21q0 -16 -9 -25h-157q-86 0 -124 -37t-38 -137v-231h278q4 -12 4 -31q0 -33 -38 -33h-244v-874q0 -25 -35 -25q-20 0 -31 10v889h-141q-6 11 -6 29zM827 928q0 35 47 35h101v239 q0 129 55 180.5t162 51.5q76 0 117 -6.5t50 -13.5t9 -21q0 -16 -8 -25h-158q-86 0 -124 -37t-38 -137v-231h279q4 -12 4 -31q0 -33 -39 -33h-244v-874q0 -25 -34 -25q-20 0 -31 10v889h-141q-7 11 -7 29zM1552 924q0 39 86 39q55 0 76 -24t21 -85v-739q0 -47 49 -47h55 q8 -8 8 -27q0 -41 -86 -41q-88 0 -88 80v758q0 53 -53 53h-57q-11 15 -11 33zM1634 1255q0 59 58 60q59 0 59 -60q0 -57 -59 -57q-58 0 -58 57z" />
<glyph unicode="&#xfb04;" horiz-adv-x="2009" d="M123 928q0 35 47 35h100v239q0 129 55.5 180.5t161.5 51.5q76 0 117 -6.5t50.5 -13.5t9.5 -21q0 -16 -9 -25h-157q-86 0 -124 -37t-38 -137v-231h278q4 -12 4 -31q0 -33 -38 -33h-244v-874q0 -25 -35 -25q-20 0 -31 10v889h-141q-6 11 -6 29zM827 928q0 35 47 35h101v239 q0 129 55 180.5t162 51.5q76 0 117 -6.5t50 -13.5t9 -21q0 -16 -8 -25h-158q-86 0 -124 -37t-38 -137v-231h279q4 -12 4 -31q0 -33 -39 -33h-244v-874q0 -25 -34 -25q-20 0 -31 10v889h-141q-7 11 -7 29zM1593 231v1194q14 8 31 9q35 0 35 -29v-1153q0 -111 35 -148.5 t131 -37.5h141q2 -6 2 -27q0 -39 -143 -39q-123 0 -177.5 50t-54.5 181z" />
</font>
</defs>
</svg>
